<?xml version="1.0" encoding="utf-8"?>
<svg xmlns="http://www.w3.org/2000/svg" x="0px" y="0px" xml:space="preserve" viewBox="0 0 200 200">
  <defs>
    <style type="text/css">
      .st-lau-1 {
        fill: #620D63;
        stroke-width: 8;
      }

      .st-lau-2 {
        fill: #620D63;
        stroke-width: 8;
        stroke-linecap: round;
        stroke-linejoin: round;
      }
    </style>
  </defs>
  <g>
    <g transform="translate(3.660000, 28.060001)">
      <circle class="st-lau-1" cx="174.2" cy="73.8" r="10"/>
      <circle class="st-lau-1" cx="70.2" cy="73.8" r="10"/>
      <circle class="st-lau-1" cx="18.6" cy="73.8" r="10"/>
    </g>
    <path class="st-lau-2" d="M21.2,184h-10v-26H4v-34h16.8h16v34H30v26H21.2z"/>
    <circle class="st-lau-1" cx="126" cy="102" r="10"/>
    <path class="st-lau-2" d="M124.8,184h-10v-26H108v-34h16.8h16v34H134v26H124.8z"/>
    <path class="st-lau-2" d="M72,123.6h16.8c2.4,14.8,3.6,24,3.6,28s-3.6,6-10.4,6V184H72h-5.6v-26
		c-6.8,0-10.4-2-10.4-6s1.2-13.2,3.6-28H72V123.6z"/>
    <path class="st-lau-2" d="M175.6,123.6h16.8c2.4,14.8,3.6,24,3.6,28s-3.6,6-10.4,6V184h-10H170v-26
		c-6.8,0-10.4-2-10.4-6s1.2-13.2,3.6-28h12.4V123.6z"/>
    <path class="st-lau-2" d="M36,78.4C36.8,71.6,40,68,46,68s9.2,3.6,9.6,10.4"/>
    <path class="st-lau-2" d="M88,78.4C88.8,71.6,92,68,98,68s9.2,3.6,9.6,10.4"/>
    <path class="st-lau-2" d="M140,78.4c0.8-6.8,4-10.4,10-10.4s9.2,3.6,9.6,10.4"/>
    <path class="st-lau-2" d="M64,50.4C64.8,43.6,68,40,74,40s9.2,3.6,9.6,10.4"/>
    <path class="st-lau-2" d="M116,50.4c0.8-6.8,4-10.4,10-10.4c6,0,9.2,3.6,9.6,10.4"/>
    <path class="st-lau-2" d="M88,26.4C88.8,19.6,92,16,98,16s9.2,3.6,9.6,10.4"/>
  </g>
</svg>
