<?xml version="1.0" encoding="utf-8"?>
<svg version="1.1" xmlns="http://www.w3.org/2000/svg" x="0px" y="0px"
	 viewBox="0 0 100 100" xml:space="preserve">
  <path class="st0" d="M50,99.5c-27.2,0-49.4-22.1-49.5-49.3c0-13.2,5.1-25.7,14.4-35.1C24.2,5.7,36.6,0.5,49.8,0.5l0.2,0
		c27.2,0,49.4,22.1,49.5,49.3c0.1,27.3-22,49.6-49.3,49.7H50z"/>
  <path class="st1" d="M70.7,45.7c3.3,1.9,3.3,6.7,0,8.7l-13.6,7.8L43.5,70C40.2,72,36,69.6,36,65.7V50l0-15.7c0-3.8,4.2-6.3,7.5-4.3
		l13.6,7.8L70.7,45.7z"/>
</svg>
