<?xml version="1.0" encoding="utf-8"?>
<svg xmlns="http://www.w3.org/2000/svg" x="0px" y="0px" xml:space="preserve" viewBox="0 0 200 200">
  <g fill="#620d63">
    <path d="M99.6,0c-1,0-2,0-2,1c-29,20-53,28-81,28c-2,0-4,2-4,4v96c0,11,5,21,13,29s18,16,28,22c10,6,20,11,29,14c4,2,8,3,11,4
		c2,1,4,2,6,2s4-1,7-2c3-1,7-2,11-4c8-3,19-8,29-14c10-6,20-13,28-22c8-9,13-18,13-29V33c0-2-2-4-4-4c-28,0-52-8-81-28
		C101.6,0,100.6,0,99.6,0z M100.6,10c27,19,51,27,78,28v91c0,8-4,16-11,23c-7,8-16,15-26,20c-10,6-20,11-28,14c-4,2-8,3-10,4
		c-2,0-4,0-4,0s-2,0-5-1s-6-2-10-4c-8-3-18-8-28-14c-10-6-19-13-26-20c-7-8-11-15-11-23V38C49.6,37,73.6,29,100.6,10z"/>
    <path d="M136.6,71c-1,0-2,0-3,1l-47,47l-22-18c-2-2-4-1-6,0c-2,1-1,4,0,6l0,0l25,21c2,1,4,1,6,0l50-50c2-2,2-4,0-6
		C139.6,71,138.6,71,136.6,71z"/>
  </g>
</svg>
