<?xml version="1.0" encoding="utf-8"?>
<svg xmlns="http://www.w3.org/2000/svg" x="0px" y="0px" xml:space="preserve" viewBox="0 0 200 200">
  <title>tree-blockchains</title>
  <g fill="#620d63">
    <path d="M152.3,109.2c-5.1,0-9.3-4.2-9.3-9.3c0-5.1,4.2-9.3,9.3-9.3s9.3,4.2,9.3,9.3c0.1,5.1-4,9.2-9,9.3
		C152.5,109.2,152.4,109.2,152.3,109.2 M100.8,79.3c-11.6,0-21-9.4-21-21c0-11.6,9.4-21,21-21s21,9.4,21,21v0
		c0,4.9-1.7,9.6-4.8,13.4C113.1,76.6,107.1,79.4,100.8,79.3 M109.6,153.5c0,5.1-4.2,9.3-9.3,9.3s-9.3-4.2-9.3-9.3
		c0-5.1,4.2-9.3,9.3-9.3C105.5,144.2,109.6,148.4,109.6,153.5C109.6,153.5,109.6,153.5,109.6,153.5 M147.1,135.9
		c0,5.1-4.2,9.3-9.3,9.3c-5.1,0-9.3-4.2-9.3-9.3c0-5.1,4.2-9.3,9.3-9.3C142.9,126.6,147.1,130.7,147.1,135.9 M73.4,135.9
		c0,5.1-4.2,9.3-9.3,9.3s-9.3-4.2-9.3-9.3c0.1-5.1,4.2-9.2,9.3-9.3C69.2,126.6,73.4,130.7,73.4,135.9L73.4,135.9 M49.5,109.2
		c-5.1,0-9.3-4.2-9.3-9.3c0-5.1,4.2-9.3,9.3-9.3s9.3,4.2,9.3,9.3C58.8,105,54.7,109.2,49.5,109.2L49.5,109.2 M152.3,86.7
		c-3.7,0-7.3,1.6-9.8,4.3l-22-17.7c3.4-4.3,5.2-9.6,5.2-15c0-13.7-11.1-24.8-24.8-24.8S76.2,44.7,76.2,58.4c0,5.1,1.6,10.1,4.5,14.3
		L58.8,90.5c-2.5-2.6-5.9-4-9.5-4.1c-7.2,0-13.1,5.9-13.1,13.1s5.9,13.1,13.1,13.1s13.1-5.9,13.1-13.1c0-2.2-0.5-4.3-1.4-6.2
		l21.9-18.1c1.3,1.3,2.7,2.4,4.3,3.3l-20.3,44.1c-0.9-0.2-1.9-0.3-2.9-0.2c-7.2,0-13.1,5.9-13.1,13.1s5.9,13.1,13.1,13.1
		c7.2,0,13.1-5.9,13.1-13.1c0.1-4.8-2.5-9.2-6.7-11.5l20-43.7c2.6,1.2,5.5,1.9,8.3,2.1v57.5c-7.2,0.6-12.6,7-11.9,14.3
		c0.6,7.2,7,12.6,14.3,11.9c6.8-0.6,12-6.3,12-13.1c0-6.3-4.5-11.8-10.7-12.9V83.2c2.5-0.2,5-0.8,7.4-1.7l20.3,43.7
		c-3.5,2.5-5.6,6.5-5.7,10.7c0,7.2,5.9,13.1,13.1,13.1c7.2,0,13.1-5.9,13.1-13.1c0-7.2-5.9-13.1-13.1-13.1c-1.4,0-2.8,0.2-4.1,0.7
		l-20.3-43.7c1.6-1,3.1-2.1,4.5-3.3l22.4,17.9c-0.8,1.8-1.2,3.8-1.2,5.7c0,7.2,5.9,13.1,13.1,13.1c7.2,0,13.1-5.9,13.1-13.1
		c0.3-7.1-5.1-13-12.2-13.3C152.7,86.7,152.5,86.7,152.3,86.7"/>
    <g>
      <path d="M102,55.7h-2.6c-0.5,0-1,0.4-1,1c0,0.5,0.4,1,1,1c0,0,0,0,0,0h2.6c0.5,0,0.9-0.4,1-1c0-0.5-0.3-0.9-0.8-1
			C102.1,55.7,102,55.7,102,55.7"/>
      <path d="M101.5,45c-0.2-0.2-0.5-0.5-0.7-0.5l0,0c-0.2,0-0.5,0.2-0.7,0.5c-0.2,0.2-3.1,5-6,9.8C90.7,60.3,87.2,66,87.2,66h3.6
			l9.1-14.8c0,0,0.7-1,1.2-1l0,0c0.5,0,1.2,1,1.2,1l9.1,14.8h3.6c0,0-3.6-5.7-6.9-11.2C104.6,50,102,45.2,101.5,45"/>
    </g>
  </g>
  <path fill="#620d63" d="M100,200L100,200C44.9,200,0,155.1,0,100C0,44.9,44.9,0,100,0c55.1,0,100,44.9,100,100C200,155.1,155.1,200,100,200z
	 M100,6.3c-51.7,0-93.7,42-93.7,93.7c0,51.6,42.1,93.7,93.7,93.7c51.7,0,93.7-42,93.7-93.7C193.7,48.3,151.7,6.3,100,6.3z"/>
</svg>
