<?xml version="1.0" encoding="utf-8"?>
<svg xmlns="http://www.w3.org/2000/svg" x="0px" y="0px" xml:space="preserve" viewBox="0 0 200 200">
  <title>tree-exchange</title>
  <g fill="#620d63">
    <path d="M157.5,99.5c0,31.5-25.5,57-57,57c0,0,0,0,0,0c-13.5-0.1-26.6-4.9-37-13.6l9.8-2.1c1.3-0.3,2.2-1.5,1.9-2.9
		s-1.5-2.2-2.9-1.9l-16.5,3.3L55.6,156c0,1.4,1,2.5,2.4,2.6c1.4,0.2,2.4-1,2.6-2.4l0.2-9.1c26.1,22,65.2,18.6,87.2-7.5
		c18.2-21.6,19.4-52.7,3-75.7c-0.8-1.1-2.3-1.3-3.3-0.5c-1.1,0.8-1.3,2.3-0.5,3.3C153.9,76.4,157.5,87.8,157.5,99.5"/>
    <path d="M52.6,134.5c1.1-0.7,1.4-2.2,0.7-3.3c0,0,0,0,0-0.1c-6.3-9.4-9.6-20.4-9.5-31.7c0-31.5,25.5-57,57-57l0,0
		c13.3,0,26.2,4.7,36.5,13.1l-9.3,1.9c-1.3,0.3-2.2,1.5-1.9,2.9c0.3,1.3,1.5,2.2,2.9,1.9l16.5-3.3l0.2-16.7c0.1-1.4-1-2.6-2.4-2.6
		c-1.4-0.1-2.6,1-2.6,2.4l0,0l-0.2,9.8C113.8,30,74.8,33.9,53.1,60.4c-17.2,21-18.8,50.7-3.8,73.4C49.9,134.9,51.4,135.3,52.6,134.5
		C52.5,134.5,52.5,134.5,52.6,134.5"/>
    <path d="M113.1,79.8l-30.8,36c-0.9,1.1-0.8,2.7,0.2,3.6c1.1,0.9,2.7,0.8,3.6-0.2l30.8-36c0.9-1.1,0.8-2.6-0.2-3.6
		c-0.9-0.9-2.4-0.9-3.4,0C113.3,79.7,113.2,79.8,113.1,79.8"/>
    <path d="M75.5,84.9h7.6c2.4,0,4.3,1.9,4.3,4.3c0,2.4-1.9,4.3-4.3,4.3c0,0,0,0,0,0h-7.6V84.9z M75.5,73h6.7
		c2.1,0,3.8,1.7,3.8,3.8c0,2.1-1.7,3.8-3.8,3.8h-6.7V73z M69.7,93.5c-1.3,0-2.4,1.1-2.4,2.4c0,1.3,1.1,2.4,2.4,2.4h1v1.2
		c0,1.3,1.1,2.4,2.4,2.4c1.3,0,2.4-1.1,2.4-2.4v-1.2h0.7v1.2c0,1.3,1.1,2.4,2.4,2.4s2.4-1.1,2.4-2.4v-1.2h2.4c4.8-0.1,8.7-4,8.8-8.8
		c0-2.8-1.4-5.5-3.6-7.2c1.3-1.5,2.1-3.5,2.1-5.5c-0.1-4.6-3.8-8.3-8.3-8.3h-1.4v-1c0-1.3-1.1-2.4-2.4-2.4c-1.3,0-2.4,1.1-2.4,2.4v1
		h-0.7v-1c0-1.3-1.1-2.4-2.4-2.4s-2.4,1.1-2.4,2.4v1h-1c-1.3,0-2.4,1.1-2.4,2.4s1.1,2.4,2.4,2.4h1v20.5h-1L69.7,93.5L69.7,93.5z"/>
    <path d="M120.5,101.6L120.5,101.6c-0.8,0-1.6,0.6-1.7,1.4v0.2c0,1.3-0.9,2.3-2.1,2.6c-1.3,0.4-2.5,1.1-3.3,2.1
		c-1.4,1.4-2.2,3.3-2.1,5.2c0,1.2,0.2,2.3,0.7,3.3c0.4,0.9,1,1.7,1.7,2.4c0.8,0.7,1.7,1.3,2.6,1.9c1,0.5,2.1,1,3.6,1.7
		c1.1,0.3,2,0.9,2.9,1.7c0.6,0.7,0.9,1.7,1,2.6c0.1,0.9-0.3,1.8-1,2.4c-0.7,0.7-1.7,1-2.6,1c-1.2,0.1-2.3-0.4-3.1-1.2
		c-0.5-0.5-0.8-1-1-1.7c-0.3-1.2-1.4-2-2.6-1.9l0,0c-1.5,0-2.7,1.1-2.8,2.6c0,0.3,0,0.7,0.1,1c0.4,1,1,1.8,1.7,2.6
		c1.1,1.2,2.5,2,4.1,2.4c1.2,0.3,2.1,1.4,2.1,2.6l0,0c0,0.8,0.6,1.4,1.3,1.4c0,0,0.1,0,0.1,0c0.8-0.1,1.4-0.7,1.4-1.4l0,0
		c0-1.3,0.9-2.3,2.1-2.6c1.3-0.4,2.5-1.1,3.6-1.9c1.4-1.4,2.2-3.3,2.1-5.2c0-1.1-0.2-2.1-0.5-3.1c-0.4-0.9-1-1.7-1.7-2.4
		c-0.8-0.7-1.7-1.4-2.6-1.9c-1.2-0.7-2.5-1.2-3.8-1.7c-1.2-0.4-2.2-1.1-3.1-1.9c-0.6-0.7-0.9-1.5-1-2.4c0-1.8,1.4-3.3,3.2-3.3
		c0,0,0.1,0,0.1,0c1,0,1.9,0.5,2.6,1.2l0.7,1.4c0.3,1.2,1.4,2.1,2.6,2.1l0,0c1.5,0,2.8-1.3,2.7-2.8c0-0.2,0-0.5-0.1-0.7
		c-0.2-1-0.7-1.9-1.4-2.6c-0.9-1.1-2.2-2-3.6-2.4c-1.1-0.4-1.9-1.4-1.9-2.6v-0.5C122,102.1,121.3,101.6,120.5,101.6"/>
  </g>
  <path fill="#620d63" d="M100,200L100,200C44.9,200,0,155.1,0,100C0,44.9,44.9,0,100,0c55.1,0,100,44.9,100,100
	C200,155.1,155.1,200,100,200z M100,6.3c-51.7,0-93.7,42-93.7,93.7c0,51.6,42.1,93.7,93.7,93.7c51.7,0,93.7-42,93.7-93.7
	C193.7,48.3,151.7,6.3,100,6.3z"/>
</svg>
