<?xml version="1.0" encoding="utf-8"?>
<svg xmlns="http://www.w3.org/2000/svg" x="0px" y="0px" xml:space="preserve" viewBox="0 0 52 52">
  <style type="text/css">
    .st-unlock {
      fill: none;
      stroke: #620d63;
      stroke-width: 2;
      stroke-linecap: round;
      stroke-linejoin: round;
      stroke-miterlimit: 10;
    }
  </style>
  <g>
    <path class="st-unlock" d="M27,1L27,1c-7.5,0-13.6,6.1-13.6,13.6v0.2h4.8v-0.2c0-2.4,1-4.6,2.6-6.2c0.4-0.4,0.8-0.7,1.3-1
		c1-0.6,2-1,3.1-1.3C25.8,6,26.4,5.9,27,5.9l0,0c4.8,0,8.8,3.9,8.8,8.8v7.1h4.8v-7.1C40.6,7.1,34.5,1,27,1z"/>
    <path class="st-unlock" d="M42.4,21.9h-2h-4.7H27h-8.7h-4.7h-2c-1.6,0-2.9,1.3-2.9,2.9v1.8v19.7V48c0,1.6,1.3,2.9,2.9,2.9H27h15.4
		c1.6,0,2.9-1.3,2.9-2.9v-1.8V26.5v-1.8C45.2,23.2,44,21.9,42.4,21.9z"/>
    <path class="st-unlock" d="M30.5,34.1c0-1.9-1.5-3.5-3.5-3.5s-3.5,1.5-3.5,3.5c0,1.2,0.6,2.3,1.6,2.9l-1,4.9h5.8l-1-4.9
		C29.8,36.4,30.5,35.3,30.5,34.1z"/>
  </g>
</svg>
