<?xml version="1.0" encoding="utf-8"?>
<svg version="1.1" id="Layer_1" xmlns="http://www.w3.org/2000/svg" x="0px" y="0px"
	 viewBox="0 0 100 100" xml:space="preserve">
	<path fill="#000" d="M50,99.5c-27.2,0-49.4-22.1-49.5-49.3c0-13.2,5.1-25.7,14.4-35.1C24.2,5.7,36.6,0.5,49.8,0.5l0.2,0
		c27.2,0,49.4,22.1,49.5,49.3c0.1,27.3-22,49.6-49.3,49.7H50z"/>
	<path fill="#fff" d="M23.6,67.3l17.2-17.8L26.3,33.6c-1.4-1.5-2.4-2.9-3.1-4c-0.7-1.1-1-2.2-1-3.2c0-1,0.7-2,2-2.8
		c1.3-0.8,2.9-1.2,4.8-1.2c2.2,0,3.9,0.5,5.1,1.4c1.2,0.9,2.9,2.6,5,5L50.6,42L63,28.8c1-1.1,1.9-2.1,2.6-2.9c0.7-0.8,1.4-1.5,2.1-2
		c0.7-0.5,1.4-0.9,2.2-1.2c0.8-0.3,1.8-0.4,2.9-0.4c2,0,3.6,0.4,4.8,1.2c1.2,0.8,1.9,1.8,1.9,3c0,1.7-1.3,3.9-4,6.8L60.2,49.5
		l16.3,17.8c1.5,1.6,2.5,2.9,3.2,3.9c0.7,1,1,2,1,2.9c0,0.9-0.3,1.7-0.9,2.4c-0.6,0.7-1.4,1.3-2.5,1.7c-1.1,0.4-2.3,0.6-3.7,0.6
		c-1.5,0-2.7-0.2-3.7-0.7c-1-0.4-1.8-1-2.5-1.6s-1.8-1.9-3.5-3.8L50.4,57.7L36,73.3c-1.1,1.2-1.9,2.1-2.4,2.6c-0.5,0.5-1,1-1.7,1.5
		c-0.7,0.5-1.5,0.8-2.4,1.1c-0.9,0.3-2,0.4-3.2,0.4c-1.9,0-3.5-0.4-4.7-1.2c-1.2-0.8-1.9-2-1.9-3.6C19.7,72.2,21,70,23.6,67.3z"/>
</svg>
