<?xml version="1.0" encoding="utf-8"?>
<!-- Generator: Adobe Illustrator 22.0.1, SVG Export Plug-In . SVG Version: 6.00 Build 0)  -->
<svg version="1.1" id="Layer_1" xmlns="http://www.w3.org/2000/svg" xmlns:xlink="http://www.w3.org/1999/xlink" x="0px" y="0px"
	 viewBox="0 0 535 162" style="enable-background:new 0 0 535 162;" xml:space="preserve">
<style type="text/css">
	.st0{fill:none;stroke:#620D63;stroke-width:3;stroke-miterlimit:10;}
	.st1{fill:#620D63;}
	.st2{opacity:0.5;}
	.st3{opacity:0.5;fill:url(#SVGID_1_);enable-background:new    ;}
	.st4{opacity:0.5;fill:url(#SVGID_2_);enable-background:new    ;}
</style>
<title>layer-multichain</title>
<g id="Layer_2_1_">
	<g id="Layer_1-2">
		<g id="multichain">
			<g>
				<g>
					<circle class="st0" cx="479.5" cy="40.8" r="6.1"/>
					<circle class="st0" cx="479.5" cy="117.7" r="6.1"/>
					<circle class="st0" cx="506.7" cy="106.9" r="6.1"/>
					<circle class="st0" cx="506.7" cy="52.5" r="6.1"/>
					
						<ellipse transform="matrix(0.4473 -0.8944 0.8944 0.4473 214.622 506.9529)" class="st0" cx="517.5" cy="79.8" rx="6.1" ry="6.1"/>
					<circle class="st0" cx="451" cy="106.9" r="6.1"/>
					<circle class="st0" cx="440.2" cy="79.7" r="6.1"/>
					<path class="st0" d="M495.2,79.2c0.1-8.6-6.8-15.6-15.4-15.7c-0.1,0-0.2,0-0.3,0c-9.1,0-15.1,7.3-15.1,15.7
						c-0.1,8.6,6.9,15.7,15.5,15.7c0.1,0,0.1,0,0.2,0c4.6-0.1,8.9-2.1,12.1-5.4C494.3,86.5,495.3,82.9,495.2,79.2z"/>
					<line class="st0" x1="479.5" y1="63.4" x2="479.5" y2="46.9"/>
					<line class="st0" x1="479.5" y1="112.5" x2="479.5" y2="94.6"/>
					<line class="st0" x1="495.1" y1="79.2" x2="511.4" y2="79.2"/>
					<line class="st0" x1="446.7" y1="79.2" x2="464.3" y2="79.3"/>
					<line class="st0" x1="490.7" y1="68.2" x2="502" y2="57.2"/>
					<line class="st0" x1="468.3" y1="68.3" x2="456.1" y2="57.2"/>
					<line class="st0" x1="468.3" y1="68.6" x2="456.1" y2="57.2"/>
					<line class="st0" x1="490.6" y1="68.1" x2="502" y2="57.2"/>
					<line class="st0" x1="468.7" y1="90.3" x2="456.1" y2="102.7"/>
					<line class="st0" x1="490.4" y1="91.2" x2="502" y2="102.7"/>
					<circle class="st0" cx="451" cy="52.5" r="6.1"/>
				</g>
				<g>
					<path class="st1" d="M480.7,78.7h-2.4c-0.3,0-0.5-0.2-0.5-0.4c0,0,0,0,0-0.1v-0.5c0-0.3,0.2-0.5,0.4-0.5c0,0,0,0,0.1,0h2.4
						c0.3,0,0.5,0.2,0.5,0.4c0,0,0,0,0,0.1v0.5C481.2,78.5,481,78.7,480.7,78.7L480.7,78.7z"/>
					<path class="st1" d="M479.5,73.2c0.4,0,0.9,0.8,0.9,0.8l6.6,10.8h2.7c0,0-2.6-4.2-5.1-8.3c-2.1-3.5-4.2-6.9-4.4-7.2
						c-0.1-0.2-0.3-0.3-0.5-0.4h-0.2c-0.2,0-0.4,0.2-0.5,0.4c-0.2,0.3-2.3,3.7-4.4,7.2c-2.5,4-5.1,8.3-5.1,8.3h2.7l6.6-10.8
						C478.6,74,479.1,73.2,479.5,73.2L479.5,73.2z"/>
				</g>
			</g>
			<g id="platform-line">
				<g id="line" class="st2">
					<g id="line-right">
						<path class="st1" d="M409.6,80.5c0,1.5-1.2,2.7-2.7,2.7l0,0H259.6v-5.5h147.3C408.4,77.8,409.6,79,409.6,80.5z"/>
						<path class="st1" d="M411.8,80.5c0,2.8-2.3,5.1-5.1,5.1s-5.1-2.3-5.1-5.1c0-2.8,2.3-5.1,5.1-5.1S411.8,77.7,411.8,80.5z"/>
					</g>
				</g>
				<g id="platform">
					
						<linearGradient id="SVGID_1_" gradientUnits="userSpaceOnUse" x1="9.642063e-02" y1="3395.1978" x2="259.8" y2="3395.1978" gradientTransform="matrix(1 0 0 1 0 -3314.26)">
						<stop  offset="0" style="stop-color:#801C7D"/>
						<stop  offset="1" style="stop-color:#481368"/>
					</linearGradient>
					<path class="st3" d="M259.8,79.6c0-3.7-1.9-7.1-5-9L137.1,2.8c-4.7-2.7-10.6-2.7-15.3,0L5.1,70.6c-3.1,1.8-5.1,5.2-5,8.8V84
						c0,3.6,2,7,5.1,8.8l112.5,64.9c7.9,4.6,17.6,4.5,25.4-0.1l111.6-64.8c3.1-1.8,5.1-5.2,5-8.8L259.8,79.6L259.8,79.6z"/>
					
						<linearGradient id="SVGID_2_" gradientUnits="userSpaceOnUse" x1="0.2" y1="-306.0002" x2="259.8036" y2="-306.0002" gradientTransform="matrix(1 0 0 -1 0 -224)">
						<stop  offset="0" style="stop-color:#D633BB"/>
						<stop  offset="0.41" style="stop-color:#E140AE"/>
						<stop  offset="1" style="stop-color:#F75A94"/>
					</linearGradient>
					<path class="st4" d="M259.8,79.6c0-3.7-1.9-7.1-5-9L137.1,2.8l117.5,67.8c4.9,2.8,6.5,9.1,3.7,13.9c-0.9,1.5-2.2,2.8-3.7,3.7
						L143.1,153c-7.8,4.6-17.5,4.6-25.4,0.1L5.2,88.2c-3.1-1.7-5-5-5-8.5v4.4c0,3.6,1.9,7,5.1,8.8l112.5,64.9
						c7.9,4.6,17.6,4.5,25.4-0.1l111.6-64.8c3.1-1.8,5.1-5.2,5-8.8C259.8,80.6,259.8,82.9,259.8,79.6z"/>
				</g>
			</g>
		</g>
	</g>
</g>
</svg>
