<?xml version="1.0" encoding="utf-8"?>
<!-- Generator: Adobe Illustrator 22.0.1, SVG Export Plug-In . SVG Version: 6.00 Build 0)  -->
<svg version="1.1" id="Layer_1" xmlns="http://www.w3.org/2000/svg" xmlns:xlink="http://www.w3.org/1999/xlink" x="0px" y="0px"
	 viewBox="0 0 535 162" style="enable-background:new 0 0 535 162;" xml:space="preserve">
<style type="text/css">
	.st0{fill:none;stroke:#620D63;stroke-width:3;stroke-miterlimit:10;}
	.st1{fill:#620D63;}
	.st2{opacity:0.5;}
	.st3{fill:url(#SVGID_1_);}
	.st4{opacity:0.5;fill:url(#SVGID_2_);enable-background:new    ;}
</style>
<title>layer-dapps</title>
<g id="Layer_2_1_">
	<g id="Layer_1-2">
		<g id="dapps">
			<g id="icon">
				<g>
					<circle class="st0" cx="515.7" cy="74.8" r="7.8"/>
					<circle class="st0" cx="444.8" cy="74.8" r="7.8"/>
					<circle class="st0" cx="455" cy="99.7" r="7.8"/>
					<circle class="st0" cx="505.6" cy="99.7" r="7.8"/>
					<circle class="st0" cx="479.8" cy="111.8" r="7.8"/>
					<line class="st0" x1="480.2" y1="61.7" x2="480.2" y2="103.1"/>
					<line class="st0" x1="487.3" y1="60.6" x2="502.2" y2="92.8"/>
					<line class="st0" x1="509.2" y1="70.6" x2="491.1" y2="56"/>
					<line class="st0" x1="472.3" y1="60.6" x2="457.5" y2="92.8"/>
					<line class="st0" x1="450.3" y1="70.6" x2="468.7" y2="56"/>
					<path class="st0" d="M496.1,46.2c0-8.8-7-15.9-15.8-15.9s-15.9,7-15.9,15.8s7,15.9,15.8,15.9c4.8,0,9.3-2.1,12.3-5.8
						C494.8,53.4,496.1,49.9,496.1,46.2z"/>
				</g>
				<g>
					<path class="st1" d="M481.5,46.3h-2.4c-0.3,0-0.5-0.2-0.5-0.4c0,0,0,0,0-0.1v-0.5c0-0.3,0.2-0.5,0.4-0.5c0,0,0,0,0.1,0h2.4
						c0.3,0,0.5,0.2,0.5,0.4c0,0,0,0,0,0.1v0.5C482,46.1,481.8,46.3,481.5,46.3C481.6,46.3,481.5,46.3,481.5,46.3z"/>
					<path class="st1" d="M480.2,40.8c0.4,0,0.9,0.8,0.9,0.8l6.6,10.8h2.7c0,0-2.6-4.2-5.1-8.3c-2.1-3.5-4.2-6.9-4.4-7.2
						c-0.1-0.2-0.3-0.3-0.5-0.4h-0.2c-0.2,0-0.4,0.2-0.5,0.4c-0.2,0.3-2.3,3.7-4.4,7.2c-2.5,4-5.1,8.3-5.1,8.3h2.7l6.6-10.8
						C479.3,41.5,479.8,40.8,480.2,40.8L480.2,40.8z"/>
				</g>
			</g>
			<g id="platform-line">
				<g id="line" class="st2">
					<g>
						<path class="st1" d="M410,79.9c0,1.5-1.2,2.7-2.7,2.7l0,0H259.5c0.3-0.9,0.4-1.8,0.4-2.7c0-0.9-0.1-1.8-0.4-2.7h147.7
							C408.8,77.2,410,78.4,410,79.9z"/>
						<path class="st1" d="M412.5,79.9c0,2.8-2.3,5.1-5.1,5.1s-5.1-2.3-5.1-5.1c0-2.8,2.3-5.1,5.1-5.1S412.5,77.1,412.5,79.9z"/>
					</g>
				</g>
				<g id="platform" class="st2">
					
						<linearGradient id="SVGID_1_" gradientUnits="userSpaceOnUse" x1="0.2" y1="3628.5977" x2="259.8036" y2="3628.5977" gradientTransform="matrix(1 0 0 1 0 -3547.6599)">
						<stop  offset="0" style="stop-color:#801C7D"/>
						<stop  offset="1" style="stop-color:#481368"/>
					</linearGradient>
					<path class="st3" d="M259.8,79.6c0-3.7-1.9-7.1-5-9L137.2,2.8c-4.7-2.7-10.6-2.7-15.3,0L5.2,70.6c-3.1,1.8-5,5.2-5,8.8V84
						c0,3.6,2,7,5.1,8.8l112.5,64.9c7.9,4.6,17.6,4.5,25.4-0.1l111.6-64.8c3.1-1.8,5.1-5.2,5-8.8V79.6z"/>
					
						<linearGradient id="SVGID_2_" gradientUnits="userSpaceOnUse" x1="0.2" y1="-306.0002" x2="259.8036" y2="-306.0002" gradientTransform="matrix(1 0 0 -1 0 -224)">
						<stop  offset="0" style="stop-color:#D633BB"/>
						<stop  offset="0.41" style="stop-color:#E140AE"/>
						<stop  offset="1" style="stop-color:#F75A94"/>
					</linearGradient>
					<path class="st4" d="M259.8,79.6c0-3.7-1.9-7.1-5-9L137.2,2.8l117.5,67.8c4.9,2.8,6.5,9.1,3.7,13.9c-0.9,1.5-2.2,2.8-3.7,3.7
						L143.1,153c-7.8,4.6-17.5,4.6-25.4,0.1L5.2,88.2c-3.1-1.7-5-5-5-8.5v4.4c0,3.6,1.9,7,5.1,8.8l112.5,64.9
						c7.9,4.6,17.6,4.5,25.4-0.1l111.6-64.8c3.1-1.8,5.1-5.2,5-8.8V79.6z"/>
				</g>
			</g>
		</g>
	</g>
</g>
</svg>
