<?xml version="1.0" encoding="utf-8"?>
<svg version="1.1" id="Layer_1" xmlns="http://www.w3.org/2000/svg" viewBox="0 0 282 160" xml:space="preserve">
<style type="text/css">
	.st0{opacity:0.5;}
	.st1{fill:url(#SVGID_1_);}
	.st2{opacity:0.5;fill:url(#SVGID_2_);enable-background:new    ;}
	.st3{fill:#620D63;}
	.st4{fill:none;stroke:#FFFFFF;stroke-width:2;stroke-miterlimit:10;}
	.st5{fill:#FFFFFF;}
</style>
<g>
	<g>
		<g class="st0">

				<linearGradient id="SVGID_1_" gradientUnits="userSpaceOnUse" x1="0" y1="-191.9623" x2="259.6" y2="-191.9623" gradientTransform="matrix(1 0 0 1 0 272)">
				<stop  offset="0" style="stop-color:#801C7D"/>
				<stop  offset="1" style="stop-color:#481368"/>
			</linearGradient>
			<path class="st1" d="M259.5,78.7c0.1-3.4-1.7-7-5-9L136.9,1.9c-4.7-2.7-10.5-2.7-15.3,0L5,69.7c-3.4,2-5,5.4-5,8.8s0,1.2,0,4.6
				s1.7,6.8,5.1,8.8l112.5,64.9c7.9,4.6,17.6,4.5,25.4-0.1l111.6-64.8c3.4-2,5-5.4,5-8.8C259.5,79.7,259.5,82,259.5,78.7z"/>

				<linearGradient id="SVGID_2_" gradientUnits="userSpaceOnUse" x1="0" y1="80.8998" x2="259.6" y2="80.8998" gradientTransform="matrix(1 0 0 -1 0 162)">
				<stop  offset="0" style="stop-color:#D633BB"/>
				<stop  offset="0.4138" style="stop-color:#E140AE"/>
				<stop  offset="1" style="stop-color:#F75A94"/>
			</linearGradient>
			<path class="st2" d="M259.5,78.7c0.1-3.4-1.7-7-5-9L136.9,1.9l117.5,67.8c6.7,3.9,6.8,13.7,0,17.6l-111.6,64.8
				c-7.8,4.6-17.5,4.6-25.4,0.1L5,87.3c-3.3-1.9-5-5.2-5-8.5c0,3.1,0,1.1,0,4.4C0,86.6,1.7,90,5.1,92l112.5,64.9
				c7.9,4.6,17.6,4.5,25.4-0.1L254.6,92c3.4-2,5-5.4,5-8.8C259.5,79.7,259.5,82,259.5,78.7z"/>
		</g>
		<g class="st0">
			<g>
				<g>
					<path class="st3" d="M280.7,79c0,1.5-1.2,2.7-2.7,2.7h-18.4c0.1-1.6,0.1-1.8,0.1-2.7c0-1-0.1-1.9-0.4-2.7H278
						C279.4,76.3,280.7,77.5,280.7,79z"/>
				</g>
				<path class="st3" d="M282.1,79c0,2.8-2.3,5.1-5.1,5.1c-2.8,0-5.1-2.3-5.1-5.1c0-2.8,2.3-5.1,5.1-5.1
					C279.8,73.9,282.1,76.2,282.1,79z"/>
			</g>
		</g>
	</g>
	<g>
		<g>
			<circle class="st4" cx="187.9" cy="77.6" r="6.1"/>
			<circle class="st4" cx="132.1" cy="77.6" r="6.1"/>
			<circle class="st4" cx="140.1" cy="97.1" r="6.1"/>
			<circle class="st4" cx="179.9" cy="97.1" r="6.1"/>
			<circle class="st4" cx="159.6" cy="106.7" r="6.1"/>
			<line class="st4" x1="159.9" y1="67.4" x2="159.9" y2="99.8"/>
			<line class="st4" x1="165.6" y1="66.5" x2="177.2" y2="91.8"/>
			<line class="st4" x1="182.8" y1="74.4" x2="168.4" y2="62.8"/>
			<line class="st4" x1="153.8" y1="66.5" x2="142.1" y2="91.8"/>
			<line class="st4" x1="136.6" y1="74.4" x2="150.9" y2="62.8"/>
			<path class="st4" d="M172.4,55.1c0-6.8-5.5-12.4-12.4-12.4c-6.8,0-12.4,5.5-12.4,12.4s5.5,12.4,12.4,12.4c3.9,0,7.3-1.8,9.6-4.6
				C171.4,60.8,172.4,58.1,172.4,55.1z"/>
		</g>
		<g>
			<path class="st5" d="M160.9,55.2h-1.7c-0.3,0-0.5-0.2-0.5-0.5v-0.2c0-0.3,0.2-0.5,0.5-0.5h1.7c0.3,0,0.5,0.2,0.5,0.5v0.2
				C161.4,55,161.1,55.2,160.9,55.2z"/>
			<path class="st5" d="M159.9,50.9c0.3,0,0.7,0.6,0.7,0.6l5.2,8.5h2.1c0,0-2.1-3.3-4-6.5c-1.7-2.8-3.3-5.4-3.5-5.7
				c-0.1-0.1-0.3-0.3-0.4-0.3c0,0,0,0-0.1,0l0,0h-0.1c-0.2,0-0.3,0.2-0.4,0.3c-0.2,0.2-1.8,2.9-3.5,5.7c-1.9,3.2-4,6.5-4,6.5h2.1
				l5.2-8.5C159.4,51.5,159.6,50.9,159.9,50.9L159.9,50.9z"/>
		</g>
	</g>
</g>
</svg>
