<?xml version="1.0" encoding="utf-8"?>
<svg version="1.1" xmlns="http://www.w3.org/2000/svg" viewBox="0 0 282 160" xml:space="preserve">
<style type="text/css">
	.st0{fill:url(#SVGID_1_);}
	.st1{opacity:0.5;fill:url(#SVGID_2_);enable-background:new    ;}
	.st2{fill:url(#SVGID_3_);}
	.st3{fill:#D633BB;}
	.st4{fill:none;}
	.st5{fill:#FFFFFF;}
</style>
<g>
	<g>
    <linearGradient id="SVGID_1_" gradientUnits="userSpaceOnUse" x1="0" y1="-191.9623" x2="259.6" y2="-191.9623" gradientTransform="matrix(1 0 0 1 0 272)">
			<stop  offset="0" style="stop-color:#801C7D"/>
			<stop  offset="1" style="stop-color:#481368"/>
		</linearGradient>
		<path class="st0" d="M259.5,78.7c0.1-3.4-1.7-7-5-9L136.9,1.9c-4.7-2.7-10.5-2.7-15.3,0L5,69.7c-3.4,2-5,5.4-5,8.8s0,1.2,0,4.6
			s1.7,6.8,5.1,8.8l112.5,64.9c7.9,4.6,17.6,4.5,25.4-0.1l111.6-64.8c3.4-2,5-5.4,5-8.8C259.5,79.7,259.5,82,259.5,78.7z"/>

			<linearGradient id="SVGID_2_" gradientUnits="userSpaceOnUse" x1="0" y1="-191.9623" x2="259.6" y2="-191.9623" gradientTransform="matrix(1 0 0 1 0 272)">
			<stop  offset="0" style="stop-color:#D633BB"/>
			<stop  offset="0.4138" style="stop-color:#E140AE"/>
			<stop  offset="1" style="stop-color:#F75A94"/>
		</linearGradient>
		<path class="st1" d="M259.5,78.7c0.1-3.4-1.7-7-5-9L136.9,1.9c-4.7-2.7-10.5-2.7-15.3,0L5,69.7c-3.4,2-5,5.4-5,8.8s0,1.2,0,4.6
			s1.7,6.8,5.1,8.8l112.5,64.9c7.9,4.6,17.6,4.5,25.4-0.1l111.6-64.8c3.4-2,5-5.4,5-8.8C259.5,79.7,259.5,82,259.5,78.7z"/>

			<linearGradient id="SVGID_3_" gradientUnits="userSpaceOnUse" x1="-6.256944e-02" y1="-786.2581" x2="259.5626" y2="-786.2581" gradientTransform="matrix(1 0 0 -1 0 -708.5203)">
			<stop  offset="0" style="stop-color:#D633BB"/>
			<stop  offset="0.4138" style="stop-color:#E140AE"/>
			<stop  offset="1" style="stop-color:#F75A94"/>
		</linearGradient>
		<path class="st2" d="M121.7,1.9L5,69.7c-6.8,3.9-6.7,13.7,0,17.6l112.5,64.9c7.9,4.6,17.6,4.5,25.4-0.1l111.6-64.8
			c6.8-3.9,6.7-13.7,0-17.6L136.9,1.9C132.2-0.8,126.4-0.8,121.7,1.9z"/>
	</g>
	<g>
		<path class="st3" d="M280.7,79.9c0-1.5-1.2-2.7-2.7-2.7h-18.4c0,1.1,0,1.8,0,2.7c0,1,0,1.8,0,2.7H278
			C279.4,82.6,280.7,81.4,280.7,79.9z"/>
		<path class="st3" d="M282.1,79.9c0-2.8-2.3-5.1-5.1-5.1c-2.8,0-5.1,2.3-5.1,5.1c0,2.8,2.3,5.1,5.1,5.1
			C279.8,85,282.1,82.7,282.1,79.9z"/>
	</g>
</g>
<line class="st4" x1="141" y1="80" x2="141" y2="80"/>
<g>
	<path class="st5" d="M163.6,78.7h-7.2c-1.5,0-2.7-1.2-2.7-2.7l0,0c0-1.5,1.2-2.7,2.7-2.7h7.2c1.5,0,2.7,1.2,2.7,2.7l0,0
		C166.3,77.5,165.1,78.7,163.6,78.7z"/>
	<path class="st5" d="M160,62.4c1.5,0,3.2,2.8,3.2,2.8l24.9,40.5h9.9c0,0-9.9-15.8-19.1-30.9c-8-13.2-15.7-25.9-16.6-27.1
		c-0.4-0.6-1.2-1.3-2-1.4c0,0-0.2,0-0.3,0h0c-0.1,0-0.3,0-0.3,0c-0.8,0.1-1.6,0.8-2,1.4c-0.9,1.2-8.6,13.9-16.6,27.1
		c-9.2,15.1-19.1,30.9-19.1,30.9h9.9l24.9-40.5C156.7,65.2,158.5,62.4,160,62.4L160,62.4z"/>
</g>
</svg>
