<?xml version="1.0" encoding="utf-8"?>
<!-- Generator: Adobe Illustrator 22.0.1, SVG Export Plug-In . SVG Version: 6.00 Build 0)  -->
<svg version="1.1" id="Layer_1" xmlns="http://www.w3.org/2000/svg" xmlns:xlink="http://www.w3.org/1999/xlink" x="0px" y="0px"
	 viewBox="0 0 535 162" style="enable-background:new 0 0 535 162;" xml:space="preserve">
<style type="text/css">
	.st0{fill:none;stroke:#620D63;stroke-width:3;stroke-miterlimit:10;}
	.st1{opacity:0.5;}
	.st2{fill:#620D63;}
	.st3{fill:url(#SVGID_1_);}
	.st4{fill:url(#SVGID_2_);}
</style>
<g id="customers">
	<g id="icon">
		<circle class="st0" cx="83.8" cy="75.7" r="4.7"/>
		<circle class="st0" cx="59.5" cy="75.8" r="4.7"/>
		<circle class="st0" cx="35" cy="75.7" r="4.7"/>
		<circle class="st0" cx="10.7" cy="75.7" r="4.7"/>
		<path class="st0" d="M90.7,85.9c1.1,7,1.7,11.3,1.7,13.2s-1.7,2.8-4.9,2.8v12.4h-7.3v-12.2c-3.2,0-4.9-0.9-4.9-2.8
			s0.6-6.2,1.7-13.2L90.7,85.9z"/>
		<path class="st0" d="M59,114.3h-4.7v-12.2h-3.2v-16h15.4v16h-3.2v12.2H59z"/>
		<path class="st0" d="M34.2,85.9h7.9c1.1,7,1.7,11.3,1.7,13.2s-1.7,2.8-4.9,2.8v12.4h-7.4v-12.2c-3.2,0-4.9-0.9-4.9-2.8
			s0.6-6.2,1.7-13.2h5.8L34.2,85.9L34.2,85.9z"/>
		<path class="st0" d="M10.3,114.3H5.6v-12.2H2.2v-16h15.4v16h-3.2v12.2H10.3z"/>
		<path class="st0" d="M66.1,64.7c0.4-3.2,1.9-4.9,4.7-4.9s4.3,1.7,4.5,4.9"/>
		<path class="st0" d="M41.7,64.7c0.4-3.2,1.9-4.9,4.7-4.9s4.3,1.7,4.5,4.9"/>
		<path class="st0" d="M17.3,64.7c0.4-3.2,1.9-4.9,4.7-4.9s4.3,1.7,4.5,4.9"/>
		<path class="st0" d="M54.8,51.5c0.4-3.2,1.9-4.9,4.7-4.9s4.3,1.7,4.5,4.9"/>
		<path class="st0" d="M30.4,51.5c0.4-3.2,1.9-4.9,4.7-4.9s4.3,1.7,4.5,4.9"/>
		<path class="st0" d="M41.7,40.3c0.4-3.2,1.9-4.9,4.7-4.9s4.3,1.7,4.5,4.9"/>
	</g>
	<g id="platform-line">
		<g id="line" class="st1">
			<g>
				<path class="st2" d="M127.3,79c0,1.5,1.2,2.7,2.7,2.7l0,0h144.8V79c0-0.9,0.1-1.8,0.3-2.7H130c-1.4,0-2.7,1.1-2.7,2.5
					C127.3,78.9,127.3,79,127.3,79z"/>
				<path class="st2" d="M124.9,79c0,2.8,2.3,5.1,5.1,5.1c2.8,0,5.1-2.3,5.1-5.1c0-2.8-2.3-5.1-5.1-5.1l0,0c-2.8-0.1-5,2.1-5.1,4.9
					C124.9,78.9,124.9,79,124.9,79z"/>
			</g>
		</g>
		<g id="platform" class="st1">
			
				<linearGradient id="SVGID_1_" gradientUnits="userSpaceOnUse" x1="275.1964" y1="3265.4976" x2="534.8" y2="3265.4976" gradientTransform="matrix(1 0 0 1 0 -3185.0598)">
				<stop  offset="0" style="stop-color:#801C7D"/>
				<stop  offset="1" style="stop-color:#481368"/>
			</linearGradient>
			<path class="st3" d="M534.8,79.1c0-3.7-1.9-7.1-5-9L412.2,2.3c-4.7-2.7-10.6-2.7-15.3,0L280.2,70.1c-3.1,1.8-5.1,5.2-5,8.8v4.6
				c0,3.6,1.9,7,5.1,8.8l112.5,64.9c7.9,4.6,17.6,4.5,25.4-0.1l111.6-64.8c3.1-1.8,5-5.2,5-8.8V79.1z"/>
			
				<linearGradient id="SVGID_2_" gradientUnits="userSpaceOnUse" x1="275.2" y1="-305.5002" x2="534.8" y2="-305.5002" gradientTransform="matrix(1 0 0 -1 0 -224)">
				<stop  offset="0" style="stop-color:#D633BB"/>
				<stop  offset="0.41" style="stop-color:#E140AE"/>
				<stop  offset="1" style="stop-color:#F75A94"/>
			</linearGradient>
			<path class="st4" d="M534.8,79.1c0-3.7-1.9-7.1-5-9L412.2,2.3l117.5,67.8c4.9,2.8,6.5,9.1,3.7,13.9c-0.9,1.5-2.2,2.8-3.7,3.7
				l-111.6,64.8c-7.8,4.6-17.5,4.6-25.4,0.1L280.2,87.7c-3.1-1.7-5-5-5-8.5v4.4c0,3.6,1.9,7,5.1,8.8l112.5,64.9
				c7.9,4.6,17.6,4.5,25.4-0.1l111.6-64.9c3.1-1.8,5-5.2,5-8.8V79.1z"/>
		</g>
	</g>
</g>
</svg>
