<?xml version="1.0" encoding="utf-8"?>
<svg version="1.1" xmlns="http://www.w3.org/2000/svg" viewBox="0 0 282 160" xml:space="preserve">
<style type="text/css">
	.st0{opacity:0.5;}
	.st1{fill:#620D63;}
	.st2{opacity:0.5;fill:url(#SVGID_1_);enable-background:new    ;}
	.st3{opacity:0.5;fill:url(#SVGID_2_);enable-background:new    ;}
	.st4{fill:none;stroke:#FFFFFF;stroke-width:2;stroke-miterlimit:10;}
	.st5{fill:#FFFFFF;}
</style>
<g>
	<g>
		<g class="st0">
			<g>
				<g>
					<path class="st1" d="M280.7,80.6c0,1.5-1.2,2.7-2.7,2.7h-17.7c0-0.7,0-1.6,0-2.8c0-1.2,0-2.3,0-2.7H278
						C279.4,77.9,280.7,79.1,280.7,80.6z"/>
				</g>
				<path class="st1" d="M282.1,80.6c0,2.8-2.3,5.1-5.1,5.1c-2.8,0-5.1-2.3-5.1-5.1c0-2.8,2.3-5.1,5.1-5.1
					C279.8,75.5,282.1,77.8,282.1,80.6z"/>
			</g>
		</g>

			<linearGradient id="SVGID_1_" gradientUnits="userSpaceOnUse" x1="0" y1="-191.9623" x2="259.6" y2="-191.9623" gradientTransform="matrix(1 0 0 1 0 272)">
			<stop  offset="0" style="stop-color:#801C7D"/>
			<stop  offset="1" style="stop-color:#481368"/>
		</linearGradient>
		<path class="st2" d="M259.5,78.7c0.1-3.4-1.7-7-5-9L136.9,1.9c-4.7-2.7-10.5-2.7-15.3,0L5,69.7c-3.4,2-5,5.4-5,8.8s0,1.2,0,4.6
			s1.7,6.8,5.1,8.8l112.5,64.9c7.9,4.6,17.6,4.5,25.4-0.1l111.6-64.8c3.4-2,5-5.4,5-8.8C259.5,79.7,259.5,82,259.5,78.7z"/>

			<linearGradient id="SVGID_2_" gradientUnits="userSpaceOnUse" x1="0" y1="80.8998" x2="259.6" y2="80.8998" gradientTransform="matrix(1 0 0 -1 0 162)">
			<stop  offset="0" style="stop-color:#D633BB"/>
			<stop  offset="0.4138" style="stop-color:#E140AE"/>
			<stop  offset="1" style="stop-color:#F75A94"/>
		</linearGradient>
		<path class="st3" d="M259.5,78.7c0.1-3.4-1.7-7-5-9L136.9,1.9l117.5,67.8c6.7,3.9,6.8,13.7,0,17.6l-111.6,64.8
			c-7.8,4.6-17.5,4.6-25.4,0.1L5,87.3c-3.3-1.9-5-5.2-5-8.5c0,3.1,0,1.1,0,4.4C0,86.6,1.7,90,5.1,92l112.5,64.9
			c7.9,4.6,17.6,4.5,25.4-0.1L254.6,92c3.4-2,5-5.4,5-8.8C259.5,79.7,259.5,82,259.5,78.7z"/>
	</g>
	<g>
		<g>
			<g>
				<g>
					<circle class="st4" cx="160.6" cy="48" r="4.8"/>
					<circle class="st4" cx="160.6" cy="108.4" r="4.8"/>
					<circle class="st4" cx="182" cy="100" r="4.8"/>
					<circle class="st4" cx="182" cy="57.2" r="4.8"/>
					<circle class="st4" cx="190.4" cy="78.6" r="4.8"/>
					<circle class="st4" cx="138.1" cy="100" r="4.8"/>
					<circle class="st4" cx="129.6" cy="78.6" r="4.8"/>
					<path class="st4" d="M172.9,78.2c0-6.7-5.2-12.4-12.4-12.4c-7.1,0-11.9,5.7-11.9,12.4s5.2,12.4,12.4,12.4
						c3.8,0,7.1-1.9,9.5-4.3C172,84.1,172.9,81.5,172.9,78.2z"/>
					<line class="st4" x1="160.6" y1="65.7" x2="160.6" y2="52.8"/>
					<line class="st4" x1="160.6" y1="104.4" x2="160.6" y2="90.3"/>
					<line class="st4" x1="172.8" y1="78.2" x2="185.6" y2="78.2"/>
					<line class="st4" x1="134.8" y1="78.2" x2="148.6" y2="78.3"/>
					<line class="st4" x1="169.4" y1="69.6" x2="178.3" y2="60.9"/>
					<line class="st4" x1="151.7" y1="69.6" x2="142.2" y2="60.9"/>
					<line class="st4" x1="151.7" y1="69.9" x2="142.2" y2="60.9"/>
					<line class="st4" x1="169.3" y1="69.5" x2="178.3" y2="60.9"/>
					<line class="st4" x1="152.1" y1="86.9" x2="142.2" y2="96.6"/>
					<line class="st4" x1="169.1" y1="87.6" x2="178.3" y2="96.6"/>
					<circle class="st4" cx="138.1" cy="57.2" r="4.8"/>
				</g>
				<path class="st4" d="M161.3,71.6"/>
				<path class="st4" d="M161.3,71.6"/>
				<path class="st4" d="M161.3,71.6"/>
			</g>
		</g>
		<g>
			<path class="st5" d="M161.4,77.8h-1.7c-0.3,0-0.5-0.2-0.5-0.5v-0.2c0-0.3,0.2-0.5,0.5-0.5h1.7c0.3,0,0.5,0.2,0.5,0.5v0.2
				C161.9,77.6,161.7,77.8,161.4,77.8z"/>
			<path class="st5" d="M160.6,73.5c0.3,0,0.7,0.6,0.7,0.6l5.2,8.5h2.1c0,0-2.1-3.3-4-6.5c-1.7-2.8-3.3-5.4-3.5-5.7
				c-0.1-0.1-0.3-0.3-0.4-0.3c0,0,0,0-0.1,0l0,0h-0.1c-0.2,0-0.3,0.2-0.4,0.3c-0.2,0.2-1.8,2.9-3.5,5.7c-1.9,3.2-4,6.5-4,6.5h2.1
				l5.2-8.5C159.9,74.1,160.2,73.5,160.6,73.5L160.6,73.5z"/>
		</g>
	</g>
</g>
</svg>
