<?xml version="1.0" encoding="utf-8"?>
<!-- Generator: Adobe Illustrator 22.0.1, SVG Export Plug-In . SVG Version: 6.00 Build 0)  -->
<svg version="1.1" id="Layer_1" xmlns="http://www.w3.org/2000/svg" xmlns:xlink="http://www.w3.org/1999/xlink" x="0px" y="0px"
	 viewBox="0 0 992.3 262" style="enable-background:new 0 0 992.3 262;" xml:space="preserve">
<style type="text/css">
	.st0{fill:none;stroke:#4A4A4A;stroke-width:3.24;stroke-linecap:round;stroke-linejoin:round;}
	.st1{fill:#4A4A4A;}
	.st2{fill:none;stroke:#4A4A4A;stroke-width:3.24;}
	.st3{fill:none;stroke:#4A4A4A;stroke-width:1.9;stroke-linecap:round;stroke-linejoin:round;}
	.st4{fill:url(#SVGID_1_);}
	.st5{fill:none;}
	.st6{fill:url(#SVGID_2_);}
	.st7{fill:#FFFFFF;}
</style>
<g>
	<g id="blockchain">
		<path class="st0" d="M190,126.1c0,0,670,0.6,707,0.6c29.1,0,45.9-8.4,45.9-23.5c0-12.4,0-18.6,0-18.6"/>
		<g>
			<path class="st1" d="M964.9,46.5c-2.2,0-3.9-1.8-3.9-3.9c0-2.2,1.8-3.9,3.9-3.9c2.2,0,3.9,1.8,3.9,3.9
				C968.8,44.8,967.1,46.5,964.9,46.5 M943.3,34c-4.9,0-8.8-3.9-8.8-8.8s4-8.8,8.8-8.8s8.8,3.9,8.8,8.8c0,2-0.7,4-2,5.6
				C948.5,32.8,946,34,943.3,34 M947,65.1c0,2.2-1.8,3.9-3.9,3.9c-2.2,0-3.9-1.8-3.9-3.9c0-2.2,1.8-3.9,3.9-3.9
				C945.2,61.2,947,62.9,947,65.1 M962.7,57.7c0,2.2-1.8,3.9-3.9,3.9c-2.2,0-3.9-1.8-3.9-3.9s1.8-3.9,3.9-3.9S962.7,55.6,962.7,57.7
				 M931.8,57.7c0,2.2-1.8,3.9-3.9,3.9c-2.2,0-3.9-1.8-3.9-3.9s1.8-3.9,3.9-3.9C930.1,53.8,931.8,55.6,931.8,57.7 M921.8,46.5
				c-2.2,0-3.9-1.8-3.9-3.9c0-2.2,1.8-3.9,3.9-3.9c2.2,0,3.9,1.8,3.9,3.9C925.7,44.8,923.9,46.5,921.8,46.5 M964.9,37.1
				c-1.6,0-3.1,0.7-4.1,1.8l-9.2-7.4c1.4-1.8,2.2-4,2.2-6.3c0-5.7-4.7-10.4-10.4-10.4S933,19.5,933,25.2c0,2.2,0.7,4.3,1.9,6
				l-9.2,7.5c-1-1-2.4-1.7-4-1.7c-3,0-5.5,2.5-5.5,5.5s2.5,5.5,5.5,5.5s5.5-2.5,5.5-5.5c0-0.9-0.2-1.8-0.6-2.6l9.2-7.6
				c0.5,0.5,1.1,1,1.8,1.4l-8.5,18.5c-0.4-0.1-0.8-0.1-1.2-0.1c-3,0-5.5,2.5-5.5,5.5s2.5,5.5,5.5,5.5s5.5-2.5,5.5-5.5
				c0-2.1-1.1-3.9-2.8-4.8l8.4-18.3c1.1,0.5,2.3,0.8,3.5,0.9v24.1c-2.8,0.3-5,2.6-5,5.5c0,3,2.5,5.5,5.5,5.5s5.5-2.5,5.5-5.5
				c0-2.7-1.9-4.9-4.5-5.4v-24c1.1-0.1,2.1-0.3,3.1-0.7l8.5,18.3c-1.4,1-2.4,2.7-2.4,4.5c0,3,2.5,5.5,5.5,5.5s5.5-2.5,5.5-5.5
				s-2.5-5.5-5.5-5.5c-0.6,0-1.2,0.1-1.7,0.3l-8.5-18.3c0.7-0.4,1.3-0.9,1.9-1.4l9.4,7.5c-0.3,0.7-0.5,1.5-0.5,2.4
				c0,3,2.5,5.5,5.5,5.5s5.5-2.5,5.5-5.5C970.4,39.5,967.9,37.1,964.9,37.1"/>
			<g>
				<path class="st1" d="M943.8,24.1h-1.1c-0.2,0-0.4,0.2-0.4,0.4s0.2,0.4,0.4,0.4h1.1c0.2,0,0.4-0.2,0.4-0.4S944.1,24.1,943.8,24.1
					"/>
				<path class="st1" d="M943.6,19.6c-0.1-0.1-0.2-0.2-0.3-0.2l0,0l0,0l0,0c-0.1,0-0.2,0.1-0.3,0.2c-0.1,0.2-1.3,2.1-2.5,4.1
					c-1.4,2.3-2.9,4.7-2.9,4.7h1.5l3.8-6.2c0,0,0.3-0.4,0.5-0.4l0,0c0.2,0,0.5,0.4,0.5,0.4l3.8,6.2h1.5c0,0-1.5-2.4-2.9-4.7
					C944.9,21.7,943.8,19.7,943.6,19.6"/>
			</g>
		</g>
		<path class="st2" d="M943.8,84.1c22.4,0,40.6-18.2,40.6-40.6S966.2,2.9,943.8,2.9s-40.6,18.2-40.6,40.6S921.3,84.1,943.8,84.1z"/>
	</g>
	<g id="exchange">
		<path class="st0" d="M181.7,108c0,0,10.4,0.6,32,0.6c17,0,20.7-8.6,20.7-23.5c0-0.5,0-0.2,0,1"/>
		<g id="Group">
			<g>
				<path class="st1" d="M257.9,44.2c0,6.6-2.7,12.6-7,16.9s-10.3,7-16.9,7c-5.9,0-11.3-2.2-15.5-5.7l4.1-0.9
					c0.6-0.1,0.9-0.7,0.8-1.2c-0.1-0.6-0.7-0.9-1.2-0.8l-6.9,1.4l-0.1,7c0,0.6,0.4,1,1,1.1s1-0.4,1.1-1l0.1-3.8
					c4.5,3.8,10.3,6.1,16.7,6.1c14.3,0,25.9-11.6,25.9-26c0-5.6-1.8-10.8-4.8-15c-0.3-0.5-1-0.6-1.4-0.2c-0.5,0.3-0.6,1-0.2,1.4
					C256.2,34.2,257.9,39,257.9,44.2"/>
				<path class="st1" d="M213.9,58.9c0.5-0.3,0.6-1,0.3-1.4c-2.6-3.8-4-8.4-4-13.3c0-6.6,2.7-12.6,7-16.9c4.3-4.3,10.3-7,16.9-7
					c5.8,0,11.1,2.1,15.3,5.5l-3.9,0.8c-0.6,0.1-0.9,0.7-0.8,1.2c0.1,0.6,0.7,0.9,1.2,0.8l6.9-1.4l0.1-7c0-0.6-0.4-1-1-1.1
					c-0.6,0-1,0.4-1.1,1l-0.1,4.1c-4.5-3.8-10.3-6.1-16.7-6.1c-14.3,0-25.9,11.6-25.9,26c0,5.4,1.6,10.3,4.4,14.5
					C212.8,59.1,213.4,59.2,213.9,58.9"/>
				<path class="st1" d="M239.3,36l-12.9,15.1c-0.4,0.4-0.3,1.1,0.1,1.5c0.4,0.4,1.1,0.3,1.5-0.1l12.9-15.1c0.4-0.4,0.3-1.1-0.1-1.5
					S239.7,35.5,239.3,36"/>
				<path class="st1" d="M223.5,38.1h3.2c1,0,1.8,0.8,1.8,1.8s-0.8,1.8-1.8,1.8h-3.2C223.5,41.7,223.5,38.1,223.5,38.1z M223.5,33.1
					h2.8l0,0c0.9,0,1.6,0.7,1.6,1.6c0,0.9-0.7,1.6-1.6,1.6h-2.8C223.5,36.3,223.5,33.1,223.5,33.1z M221.1,41.7c-0.5,0-1,0.4-1,1
					c0,0.5,0.4,1,1,1h0.4v0.5c0,0.5,0.4,1,1,1c0.5,0,1-0.4,1-1v-0.5h0.3v0.5c0,0.5,0.4,1,1,1c0.5,0,1-0.4,1-1v-0.5h1
					c2,0,3.7-1.7,3.7-3.7c0-1.2-0.6-2.3-1.5-3c0.5-0.6,0.9-1.4,0.9-2.3c0-1.9-1.6-3.5-3.5-3.5h-0.6v-0.4c0-0.5-0.4-1-1-1
					c-0.5,0-1,0.4-1,1v0.4h-0.3v-0.4c0-0.5-0.4-1-1-1c-0.5,0-1,0.4-1,1v0.4h-0.4c-0.5,0-1,0.4-1,1c0,0.5,0.4,1,1,1h0.4v8.6
					L221.1,41.7L221.1,41.7L221.1,41.7z"/>
				<path class="st1" d="M242.4,45.1L242.4,45.1c-0.4,0-0.7,0.3-0.7,0.6v0.1c0,0.5-0.4,1-0.9,1.1c-0.6,0.2-1.1,0.5-1.4,0.9
					c-0.6,0.6-0.9,1.3-0.9,2.2c0,0.5,0.1,1,0.3,1.4s0.4,0.7,0.7,1s0.7,0.5,1.1,0.8c0.4,0.2,0.9,0.4,1.5,0.7c0.6,0.2,1,0.5,1.2,0.7
					c0.2,0.3,0.4,0.6,0.4,1.1c0,0.4-0.1,0.8-0.4,1c-0.3,0.3-0.6,0.4-1.1,0.4c-0.6,0-1-0.2-1.3-0.5c-0.2-0.2-0.3-0.4-0.4-0.7
					c-0.1-0.5-0.6-0.8-1.1-0.8l0,0c-0.8,0-1.4,0.8-1.1,1.5c0.2,0.4,0.4,0.8,0.7,1.1c0.4,0.5,1,0.8,1.7,1c0.5,0.1,0.9,0.6,0.9,1.1
					l0,0c0,0.4,0.3,0.6,0.6,0.6s0.6-0.3,0.6-0.6l0,0c0-0.5,0.4-1,0.9-1.1c0.6-0.2,1.1-0.5,1.5-0.8c0.6-0.6,0.9-1.3,0.9-2.2
					c0-0.5-0.1-0.9-0.2-1.3c-0.2-0.4-0.4-0.7-0.7-1s-0.6-0.5-1.1-0.8c-0.4-0.2-0.9-0.5-1.6-0.7c-0.6-0.3-1.1-0.5-1.3-0.8
					c-0.2-0.2-0.4-0.6-0.4-1s0.1-0.8,0.4-1c0.2-0.3,0.6-0.4,1-0.4s0.8,0.2,1.1,0.5c0.1,0.2,0.2,0.4,0.3,0.6c0.1,0.5,0.6,0.9,1.1,0.9
					l0,0c0.8,0,1.3-0.8,1.1-1.5c-0.1-0.4-0.3-0.8-0.6-1.1c-0.4-0.5-0.9-0.8-1.5-1c-0.5-0.2-0.8-0.6-0.8-1.1v-0.2
					C243,45.3,242.7,45.1,242.4,45.1"/>
			</g>
			<path class="st2" d="M234.2,83.8c22.4,0,40.6-18.2,40.6-40.6c0-22.4-18.2-40.6-40.6-40.6s-40.6,18.2-40.6,40.6
				C193.6,65.6,211.8,83.8,234.2,83.8z"/>
		</g>
	</g>
	<g id="wallets">
		<path class="st0" d="M187,117.1c0,0,326.6,0.6,363.5,0.6c29.1,0,45.9-8.4,45.9-23.5c0-0.2-0.1-3-0.4-8.4"/>
		<g>
			<g>
				<path class="st1" d="M616.8,44.9c0,0.6-0.5,1.2-1.2,1.2h-8.1c-0.6,0-1.2-0.5-1.2-1.2v-4c0-0.6,0.5-1.2,1.2-1.2h8.1
					c0.6,0,1.2,0.5,1.2,1.2V44.9z M614.7,59.1h-38.4V26.8h38.4v11.3h-7.1c-1.5,0-2.8,1.3-2.8,2.8v4c0,1.5,1.3,2.8,2.8,2.8h7.1V59.1z
					 M616.6,38.3v-12c0-0.8-0.7-1.4-1.5-1.4h-39.3c-0.8,0-1.5,0.6-1.5,1.4v33.3c0,0.8,0.7,1.5,1.5,1.5h39.3c0.8,0,1.5-0.7,1.5-1.5
					v-12c1.1-0.4,1.8-1.4,1.8-2.6v-4.1C618.4,39.7,617.7,38.7,616.6,38.3z"/>
				<path class="st1" d="M611.4,41.2c0.8,0,1.5,0.7,1.5,1.5s-0.7,1.5-1.5,1.5s-1.5-0.7-1.5-1.5C609.9,41.9,610.5,41.2,611.4,41.2"/>
			</g>
			<path class="st2" d="M595.7,84.1c22.4,0,40.6-18.2,40.6-40.6S618.2,2.9,595.7,2.9s-40.6,18.2-40.6,40.6S573.3,84.1,595.7,84.1z"
				/>
		</g>
	</g>
	<g id="dapps">
		<g>
			<g>
				<path class="st1" d="M407,196c0,1.6-1.3,2.9-2.9,2.9s-2.9-1.3-2.9-2.9s1.3-2.9,2.9-2.9C405.7,193.2,407,194.5,407,196
					 M413.1,220c0,4.7-3.8,8.5-8.5,8.5s-8.5-3.8-8.5-8.5s3.8-8.5,8.5-8.5S413.1,215.3,413.1,220 M427.5,216.9c1.6,0,2.9,1.3,2.9,2.9
					s-1.3,2.9-2.9,2.9c-1.6,0-2.9-1.3-2.9-2.9C424.7,218.1,426,216.9,427.5,216.9 M381.3,222.6c-1.6,0-2.9-1.3-2.9-2.9
					s1.3-2.9,2.9-2.9c1.6,0,2.9,1.3,2.9,2.9C384.2,221.3,382.9,222.6,381.3,222.6 M417.6,202.5c0-1.6,1.3-2.9,2.9-2.9
					c1.6,0,2.9,1.3,2.9,2.9s-1.3,2.9-2.9,2.9S417.6,204.1,417.6,202.5 M423.4,236c0,1.6-1.3,2.9-2.9,2.9c-1.6,0-2.9-1.3-2.9-2.9
					s1.3-2.9,2.9-2.9C422.1,233.2,423.4,234.5,423.4,236 M407,242.5c0,1.6-1.3,2.9-2.9,2.9s-2.9-1.3-2.9-2.9s1.3-2.9,2.9-2.9
					C405.7,239.7,407,241,407,242.5 M390.7,236c0,1.6-1.3,2.9-2.9,2.9c-1.6,0-2.9-1.3-2.9-2.9s1.3-2.9,2.9-2.9
					C389.4,233.2,390.7,234.5,390.7,236 M385,202.5c0-1.6,1.3-2.9,2.9-2.9s2.9,1.3,2.9,2.9s-1.3,2.9-2.9,2.9
					C386.2,205.4,385,204.1,385,202.5 M399.7,196c0,2.3,1.7,4.2,3.9,4.4v9.4c-2.1,0.2-4.1,1.1-5.6,2.4l-6.7-6.9c0.6-0.8,1-1.8,1-2.9
					c0-2.5-2-4.5-4.5-4.5s-4.5,2-4.5,4.5s2,4.5,4.5,4.5c0.8,0,1.5-0.2,2.2-0.6l6.8,7c-1.3,1.5-2.1,3.4-2.4,5.5h-8.8
					c-0.4-2.1-2.2-3.7-4.4-3.7c-2.5,0-4.5,2-4.5,4.5s2,4.5,4.5,4.5c2.2,0,4-1.6,4.4-3.7h8.7c0.1,2,0.8,3.9,1.9,5.4l-6.2,6.3
					c-0.7-0.4-1.5-0.7-2.4-0.7c-2.5,0-4.5,2-4.5,4.5s2,4.5,4.5,4.5s4.5-2,4.5-4.5c0-1-0.3-1.9-0.9-2.7l6.1-6.2
					c1.6,1.6,3.8,2.7,6.2,2.9v8c-2.2,0.3-3.9,2.1-3.9,4.4c0,2.5,2,4.5,4.5,4.5s4.5-2,4.5-4.5c0-2.1-1.4-3.8-3.4-4.3v-8.1
					c2.2-0.1,4.3-1,5.9-2.4l5.7,5.8c-0.5,0.7-0.8,1.6-0.8,2.5c0,2.5,2,4.5,4.5,4.5s4.5-2,4.5-4.5s-2-4.5-4.5-4.5
					c-0.9,0-1.8,0.3-2.5,0.8l-5.6-5.9c1.4-1.6,2.2-3.7,2.4-6h8.4c0.4,2.1,2.2,3.7,4.4,3.7c2.5,0,4.5-2,4.5-4.5s-2-4.5-4.5-4.5
					c-2.2,0-4,1.6-4.4,3.7h-8.5c-0.2-2.3-1.2-4.3-2.7-5.9l5.1-5.6l1.1-1.1c0.7,0.4,1.5,0.7,2.3,0.7c2.5,0,4.5-2,4.5-4.5
					s-2-4.5-4.5-4.5s-4.5,2-4.5,4.5c0,1,0.3,2,0.9,2.7l-1,1.1l-5.2,5.5c-1.5-1.2-3.4-1.9-5.5-2V200c1.9-0.5,3.4-2.2,3.4-4.3
					c0-2.5-2-4.5-4.5-4.5C401.7,191.6,399.7,193.6,399.7,196"/>
				<g>
					<path class="st1" d="M405.2,220.4h-1.1c-0.2,0-0.4,0.2-0.4,0.4c0,0.2,0.2,0.4,0.4,0.4h1.1c0.2,0,0.4-0.2,0.4-0.4
						C405.7,220.6,405.5,220.4,405.2,220.4"/>
					<path class="st1" d="M404.2,218.4c0,0,0.3-0.4,0.5-0.4l0,0c0.2,0,0.5,0.4,0.5,0.4l3.1,5c0.5,0.8,1.4,1.3,2.4,1.3h0
						c0,0-1.6-2.5-3-4.8c-1.3-2.1-2.5-4.1-2.6-4.2s-0.2-0.2-0.3-0.2l0,0l0,0l0,0c-0.1,0-0.3,0.1-0.3,0.2c-0.1,0.2-1.3,2.2-2.6,4.2
						c-1.4,2.4-3,4.8-3,4.8l0,0c1,0,1.9-0.5,2.4-1.4L404.2,218.4z"/>
				</g>
			</g>
			<path class="st2" d="M405.1,259.6c22.4,0,40.6-18.2,40.6-40.6s-18.2-40.7-40.6-40.7s-40.7,18.2-40.7,40.6
				S382.6,259.6,405.1,259.6z"/>
		</g>
		<path class="st0" d="M181.7,145.8c0,0,163.5-0.6,190.5-0.6c21.2,0,33.4,8.4,33.4,23.5c0,9.8,0,9.8,0,9.8"/>
	</g>
	<g id="activity">
		<path class="st0" d="M186.5,136.1c0,0,598.7-0.6,617.8-0.6c15,0,23.6,8.4,23.6,23.5s0,14.8,0,14.8"/>
		<g>
			<path class="st2" d="M826.8,255.1c22.4,0,40.6-18.2,40.6-40.6s-18.2-40.6-40.6-40.6c-22.4,0-40.6,18.2-40.6,40.6
				S804.3,255.1,826.8,255.1z"/>
			<polyline class="st3" points="798.7,217.4 810.3,217.4 815.6,205.4 822.9,222.3 831.5,196.1 841.3,234.1 846.1,217.4 
				856.7,217.4 			"/>
		</g>
	</g>
</g>
<g>
	<g>
		
			<linearGradient id="SVGID_1_" gradientUnits="userSpaceOnUse" x1="256.7957" y1="510.8121" x2="257.7963" y2="510.8121" gradientTransform="matrix(169.4082 0 0 -114.5348 -43499.2031 58632.3086)">
			<stop  offset="0" style="stop-color:#801C7C"/>
			<stop  offset="1" style="stop-color:#481267"/>
		</linearGradient>
		<path class="st4" d="M83.6,70.6L7.4,114.5c-2.2,1.3-3.3,3.5-3.3,5.7v13.7c0,2.2,1.1,4.4,3.3,5.7l73.4,42c2.5,1.5,5.3,2.2,8.2,2.2
			h0.2c2.9,0,5.7-0.8,8.3-2.2l72.8-42c2.2-1.3,3.3-3.5,3.3-5.7s0-11.4,0-13.6s-1.1-4.5-3.3-5.8L93.5,70.6c-1.5-0.9-3.3-1.3-5-1.3
			C86.8,69.3,85.1,69.7,83.6,70.6"/>
	</g>
	<g>
		<path class="st5" d="M173.5,120.3c0-2.2-1.1-4.5-3.3-5.8L93.5,70.6c-3.1-1.8-6.9-1.8-10,0L7.4,114.5c-2.2,1.3-3.3,3.5-3.3,5.7
			v13.7c0,2.2,1.1,4.4,3.3,5.7l73.4,42c5.1,3,11.5,2.9,16.6,0l72.8-42c2.2-1.3,3.3-3.5,3.3-5.7C173.5,131.7,173.5,122.5,173.5,120.3
			"/>
	</g>
	<g>
		
			<linearGradient id="SVGID_2_" gradientUnits="userSpaceOnUse" x1="256.8004" y1="510.2149" x2="257.7952" y2="510.2149" gradientTransform="matrix(169.3433 0 0 -101.5967 -43481.6016 51955.8984)">
			<stop  offset="0" style="stop-color:#D633BB"/>
			<stop  offset="1" style="stop-color:#F74989"/>
		</linearGradient>
		<path class="st6" d="M84.4,70.3L8.2,114.5c-4.4,2.6-4.4,8.9,0,11.5l73.4,42.3c5.1,3,11.5,2.9,16.6,0L171,126
			c4.4-2.6,4.4-8.9,0-11.5L94.3,70.3c-1.5-0.9-3.3-1.3-5-1.3C87.6,68.9,85.9,69.4,84.4,70.3"/>
		<g>
			<path class="st7" d="M92.5,118.8l-5.5,3.4c-1.1,0.7-2.9,0.7-3.8,0c-1-0.7-0.8-1.9,0.3-2.5l5.5-3.4c1.1-0.7,2.9-0.7,3.8,0
				C93.8,116.9,93.6,118.1,92.5,118.8"/>
			<path class="st7" d="M76.7,110.8c1.2-0.7,4.2-0.2,4.2-0.2l44.5,7.3l7.6-4.7c0,0-17.5-2.8-34-5.5c-14.4-2.4-28.3-4.8-29.7-4.9
				c-0.7-0.1-1.8,0-2.5,0.3c0,0-0.2,0.1-0.3,0.1l0,0c-0.1,0-0.2,0.2-0.2,0.2c-0.5,0.4-0.7,1.1-0.6,1.6c0.1,1,2.2,10.6,4.4,20.6
				c2.5,11.5,4.9,23.6,4.9,23.6l7.6-4.7l-6.5-30.9C76,113.6,75.5,111.5,76.7,110.8"/>
		</g>
	</g>
</g>
</svg>
