<?xml version="1.0" encoding="utf-8"?>
<!-- Generator: Adobe Illustrator 22.0.1, SVG Export Plug-In . SVG Version: 6.00 Build 0)  -->
<svg version="1.1" id="Layer_1" xmlns="http://www.w3.org/2000/svg" xmlns:xlink="http://www.w3.org/1999/xlink" x="0px" y="0px"
	 viewBox="0 0 200 200" style="enable-background:new 0 0 200 200;" xml:space="preserve">
<style type="text/css">
	.st0{fill:url(#SVGID_1_);}
	.st1{fill:none;}
	.st2{fill:url(#SVGID_2_);}
	.st3{fill:#FFFFFF;}
</style>
<title>tree-a</title>
<linearGradient id="SVGID_1_" gradientUnits="userSpaceOnUse" x1="-182.7143" y1="439.0441" x2="-181.5361" y2="439.0441" gradientTransform="matrix(169.41 0 0 -114.53 30954.8516 50383.8711)">
	<stop  offset="0" style="stop-color:#801C7C"/>
	<stop  offset="1" style="stop-color:#481267"/>
</linearGradient>
<path class="st0" d="M93.4,44.1l-89.7,44c-2.4,1.2-3.9,3.4-3.9,5.7v13.7c0,2.4,1.5,4.5,3.9,5.7l86.4,42.1c2.9,1.5,6.3,2.2,9.7,2.2
	h0.2c3.4,0,6.8-0.8,9.8-2.2l85.7-42.1c2.4-1.2,3.9-3.4,3.9-5.7V93.9c0-2.4-1.5-4.6-3.9-5.8l-90.4-44c-1.8-0.9-3.8-1.3-5.9-1.3
	C97.2,42.8,95.2,43.2,93.4,44.1"/>
<path class="st1" d="M199.2,93.9c0-2.4-1.5-4.6-3.9-5.8l-90.3-44c-3.6-1.8-8.1-1.8-11.8,0l-89.6,44c-2.4,1.2-3.9,3.4-3.9,5.7v13.7
	c0,2.4,1.5,4.5,3.9,5.7L90,155.3c6,3,13.5,3,19.5,0l85.7-42.1c2.4-1.2,3.9-3.4,3.9-5.7L199.2,93.9"/>
<g>
	
		<linearGradient id="SVGID_2_" gradientUnits="userSpaceOnUse" x1="-182.7194" y1="438.0576" x2="-181.5422" y2="438.0576" gradientTransform="matrix(169.34 0 0 -101.6 30941.5273 44600.0195)">
		<stop  offset="0" style="stop-color:#D633BB"/>
		<stop  offset="1" style="stop-color:#F74989"/>
	</linearGradient>
	<path class="st2" d="M93.4,43.8L3.7,88.1c-3.7,1.9-5,6-2.8,9.1c0.7,1,1.6,1.8,2.8,2.4L90.1,142c6,3,13.5,3,19.5,0l85.7-42.4
		c3.7-1.9,5-5.9,2.8-9.1c-0.7-1-1.6-1.8-2.8-2.4L105,43.8c-1.8-0.9-3.8-1.3-5.9-1.3C97.1,42.4,95.1,42.9,93.4,43.8"/>
	<g>
		<path class="st3" d="M103.9,92.4l-6.5,3.4c-1.4,0.7-3.1,0.7-4.5,0c-0.8-0.4-1-1.3-0.5-1.9c0.2-0.3,0.5-0.5,0.8-0.6l6.5-3.4
			c1.4-0.7,3.1-0.7,4.5,0C105.4,90.5,105.2,91.7,103.9,92.4"/>
		<path class="st3" d="M85.3,84.4c1.4-0.7,4.9-0.2,4.9-0.2l52.4,7.3l8.9-4.7c0,0-20.6-2.8-40-5.5c-16.9-2.4-33.3-4.8-35-4.9
			c-1-0.1-2,0-2.9,0.3c-0.1,0-0.2,0.1-0.4,0.1l0,0c0,0-0.2,0.2-0.2,0.2c-0.5,0.4-0.8,1-0.7,1.6c0.1,1,2.6,10.6,5.2,20.6
			c2.9,11.5,5.8,23.6,5.8,23.6l8.9-4.7l-7.7-30.9C84.5,87.2,83.9,85.1,85.3,84.4"/>
	</g>
</g>
</svg>
