<?xml version="1.0" encoding="utf-8"?>
<!-- Generator: Adobe Illustrator 22.1.0, SVG Export Plug-In . SVG Version: 6.00 Build 0)  -->
<svg version="1.1" id="Layer_1" xmlns="http://www.w3.org/2000/svg" xmlns:xlink="http://www.w3.org/1999/xlink" x="0px" y="0px"
	 viewBox="0 0 60 60" style="enable-background:new 0 0 60 60;" xml:space="preserve">
<style type="text/css">
	.st0{display:none;}
	.st1{display:inline;stroke:#FFFFFF;stroke-linecap:round;stroke-linejoin:round;stroke-miterlimit:10;}
</style>
<g class="st0">
	<rect x="-864" y="-519" class="st1" width="1216.3" height="602.7"/>
</g>
<g>
	<path d="M42.6,0.1C42.5,0.1,42.4,0,42.2,0H17.8c-0.1,0-0.3,0.1-0.3,0.1L0.1,17.4C0.1,17.5,0,17.6,0,17.8v24.4
		c0,0.1,0.1,0.3,0.1,0.3l17.3,17.3c0.1,0.1,0.2,0.1,0.3,0.1h24.4c0.1,0,0.3-0.1,0.3-0.1l17.3-17.3c0.1-0.1,0.1-0.2,0.1-0.3V17.8
		c0-0.1-0.1-0.3-0.1-0.3L42.6,0.1z M42.7,1.7L59,17.9l-9.5,3.8L38.7,11L42.7,1.7z M48.7,22.3v15.5L37.7,48.7H22.3L11.3,37.7V22.3
		l10.9-10.9h15.5L48.7,22.3z M41.9,1l-4,9.4H22.7L18.9,1H41.9z M17.9,1.1l3.8,9.5L11,21.3l-9.3-4L17.9,1.1z M1,18.1l9.4,4v15.2
		L1,41.1V18.1z M17.3,58.3L1.1,42.1l9.5-3.8l10.8,10.8L17.3,58.3z M18.1,59l4-9.4h15.2L41,59H18.1z M42.1,59l-3.8-9.5l10.8-10.8
		l9.3,4L42.1,59z M59,41.9l-9.4-4V22.7L59,19V41.9z"/>
</g>
</svg>
