<?xml version="1.0" encoding="utf-8"?>
<!-- Generator: Adobe Illustrator 22.1.0, SVG Export Plug-In . SVG Version: 6.00 Build 0)  -->
<svg version="1.1" id="Layer_1" xmlns="http://www.w3.org/2000/svg" xmlns:xlink="http://www.w3.org/1999/xlink" x="0px" y="0px"
	 viewBox="0 0 20 20" style="enable-background:new 0 0 20 20;" xml:space="preserve">
<style type="text/css">
	.st0{fill:none;stroke:#000000;stroke-width:0.6;stroke-miterlimit:10;}
</style>
<circle class="st0" cx="17.6" cy="10" r="1.7"/>
<circle class="st0" cx="2.3" cy="10" r="1.7"/>
<circle class="st0" cx="4.5" cy="15.4" r="1.7"/>
<circle class="st0" cx="15.5" cy="15.4" r="1.7"/>
<circle class="st0" cx="9.9" cy="18" r="1.7"/>
<line class="st0" x1="10" y1="7.2" x2="10" y2="16.1"/>
<line class="st0" x1="11.5" y1="6.9" x2="14.7" y2="13.9"/>
<line class="st0" x1="16.3" y1="9.1" x2="12.3" y2="5.9"/>
<line class="st0" x1="8.3" y1="6.9" x2="5" y2="13.9"/>
<line class="st0" x1="3.5" y1="9.1" x2="7.5" y2="5.9"/>
<path class="st0" d="M13.4,3.8c0-1.9-1.5-3.4-3.4-3.4S6.6,1.9,6.6,3.8S8.1,7.2,10,7.2c1.1,0,2-0.5,2.6-1.3
	C13.1,5.4,13.4,4.6,13.4,3.8z"/>
<g>
	<path d="M10.3,4.1H9.6C9.5,4.1,9.4,4,9.4,3.9V3.8c0-0.1,0.1-0.2,0.2-0.2h0.7c0.1,0,0.2,0.1,0.2,0.2v0.1C10.5,4,10.4,4.1,10.3,4.1z"
		/>
	<path d="M9.9,2.4c0.1,0,0.3,0.2,0.3,0.2l2,3.3H13c0,0-0.8-1.3-1.6-2.5c-0.6-1.1-1.3-2.1-1.3-2.2c0-0.1-0.1-0.1-0.2-0.1c0,0,0,0,0,0
		h0c0,0,0,0,0,0c-0.1,0-0.1,0.1-0.2,0.1C9.7,1.3,9.1,2.3,8.4,3.4C7.7,4.6,6.8,5.9,6.8,5.9h0.8l2-3.3C9.7,2.6,9.8,2.4,9.9,2.4
		L9.9,2.4z"/>
</g>
</svg>
