<?xml version="1.0" encoding="utf-8"?>
<!-- Generator: Adobe Illustrator 22.0.1, SVG Export Plug-In . SVG Version: 6.00 Build 0)  -->
<svg version="1.1" id="Layer_1" xmlns="http://www.w3.org/2000/svg" xmlns:xlink="http://www.w3.org/1999/xlink" x="0px" y="0px"
	 viewBox="0 0 810 162" style="enable-background:new 0 0 810 162;" xml:space="preserve">
<style type="text/css">
	.st0{fill:none;stroke:#620D63;stroke-width:3;stroke-miterlimit:10;}
	.st1{fill:#620D63;}
	.st2{opacity:0.5;}
	.st3{opacity:0.5;fill:url(#SVGID_1_);enable-background:new    ;}
	.st4{opacity:0.5;fill:url(#SVGID_2_);enable-background:new    ;}
</style>
<title>layer-multichain</title>
<g id="Layer_2_1_">
	<g id="Layer_1-2">
		<g id="multichain">
			<g>
				<g>
					<circle class="st0" cx="754.5" cy="40.8" r="6.1"/>
					<circle class="st0" cx="754.5" cy="117.7" r="6.1"/>
					<circle class="st0" cx="781.7" cy="106.9" r="6.1"/>
					<circle class="st0" cx="781.7" cy="52.5" r="6.1"/>
					
						<ellipse transform="matrix(0.4473 -0.8944 0.8944 0.4473 366.6719 752.8543)" class="st0" cx="792.4" cy="79.8" rx="6.1" ry="6.1"/>
					<circle class="st0" cx="726" cy="106.9" r="6.1"/>
					<circle class="st0" cx="715.2" cy="79.7" r="6.1"/>
					<path class="st0" d="M770.2,79.2c0.1-8.6-6.8-15.6-15.4-15.7c-0.1,0-0.2,0-0.3,0c-9.1,0-15.1,7.3-15.1,15.7
						c-0.1,8.6,6.9,15.7,15.5,15.7c0.1,0,0.1,0,0.2,0c4.6-0.1,8.9-2.1,12.1-5.4C769.3,86.5,770.3,82.9,770.2,79.2z"/>
					<line class="st0" x1="754.5" y1="63.4" x2="754.5" y2="46.9"/>
					<line class="st0" x1="754.5" y1="112.5" x2="754.5" y2="94.6"/>
					<line class="st0" x1="770.1" y1="79.2" x2="786.4" y2="79.2"/>
					<line class="st0" x1="721.7" y1="79.2" x2="739.3" y2="79.3"/>
					<line class="st0" x1="765.7" y1="68.2" x2="777" y2="57.2"/>
					<line class="st0" x1="743.3" y1="68.3" x2="731.1" y2="57.2"/>
					<line class="st0" x1="743.3" y1="68.6" x2="731.1" y2="57.2"/>
					<line class="st0" x1="765.6" y1="68.1" x2="777" y2="57.2"/>
					<line class="st0" x1="743.7" y1="90.3" x2="731.1" y2="102.7"/>
					<line class="st0" x1="765.4" y1="91.2" x2="777" y2="102.7"/>
					<circle class="st0" cx="726" cy="52.5" r="6.1"/>
				</g>
				<g>
					<path class="st1" d="M755.7,78.7h-2.4c-0.3,0-0.5-0.2-0.5-0.4c0,0,0,0,0-0.1v-0.5c0-0.3,0.2-0.5,0.4-0.5c0,0,0,0,0.1,0h2.4
						c0.3,0,0.5,0.2,0.5,0.4c0,0,0,0,0,0.1v0.5C756.2,78.5,756,78.7,755.7,78.7L755.7,78.7z"/>
					<path class="st1" d="M754.5,73.2c0.4,0,0.9,0.8,0.9,0.8l6.6,10.8h2.7c0,0-2.6-4.2-5.1-8.3c-2.1-3.5-4.2-6.9-4.4-7.2
						c-0.1-0.2-0.3-0.3-0.5-0.4h-0.2c-0.2,0-0.4,0.2-0.5,0.4c-0.2,0.3-2.3,3.7-4.4,7.2c-2.5,4-5.1,8.3-5.1,8.3h2.7l6.6-10.8
						C753.6,74,754.1,73.2,754.5,73.2L754.5,73.2z"/>
				</g>
			</g>
			<g id="platform-line">
				<g id="line" class="st2">
					<g id="line-right">
						<path class="st1" d="M684.6,80.5c0,1.5-1.2,2.7-2.7,2.7l0,0H534.6v-5.5h147.3C683.4,77.8,684.6,79,684.6,80.5z"/>
						<path class="st1" d="M686.8,80.5c0,2.8-2.3,5.1-5.1,5.1c-2.8,0-5.1-2.3-5.1-5.1c0-2.8,2.3-5.1,5.1-5.1
							C684.5,75.4,686.8,77.7,686.8,80.5z"/>
					</g>
				</g>
				<g id="platform">
					
						<linearGradient id="SVGID_1_" gradientUnits="userSpaceOnUse" x1="275.1464" y1="-2915.2102" x2="534.7536" y2="-2915.2102" gradientTransform="matrix(1 0 0 -1 0 -2834.26)">
						<stop  offset="0" style="stop-color:#801C7D"/>
						<stop  offset="1" style="stop-color:#481368"/>
					</linearGradient>
					<path class="st3" d="M534.8,79.6c0-3.7-1.9-7.1-5-9L412.1,2.8c-4.7-2.7-10.6-2.7-15.3,0L280.1,70.6c-3.1,1.8-5.1,5.2-5,8.8V84
						c0,3.6,2,7,5.1,8.8l112.5,64.9c7.9,4.6,17.6,4.5,25.4-0.1l111.6-64.8c3.1-1.8,5.1-5.2,5-8.8V79.6z"/>
					
						<linearGradient id="SVGID_2_" gradientUnits="userSpaceOnUse" x1="275.25" y1="470.0125" x2="534.8536" y2="470.0125" gradientTransform="matrix(1 0 0 1 0 -388)">
						<stop  offset="0" style="stop-color:#D633BB"/>
						<stop  offset="0.41" style="stop-color:#E140AE"/>
						<stop  offset="1" style="stop-color:#F75A94"/>
					</linearGradient>
					<path class="st4" d="M534.8,79.6c0-3.7-1.9-7.1-5-9L412.1,2.8l117.5,67.8c4.9,2.8,6.5,9.1,3.7,13.9c-0.9,1.5-2.2,2.8-3.7,3.7
						L418.1,153c-7.8,4.6-17.5,4.6-25.4,0.1L280.2,88.2c-3.1-1.7-5-5-5-8.5v4.4c0,3.6,1.9,7,5.1,8.8l112.5,64.9
						c7.9,4.6,17.6,4.5,25.4-0.1l111.6-64.8c3.1-1.8,5.1-5.2,5-8.8C534.8,80.6,534.8,82.9,534.8,79.6z"/>
				</g>
			</g>
		</g>
	</g>
</g>
</svg>
