<?xml version="1.0" encoding="utf-8"?>
<!-- Generator: Adobe Illustrator 22.0.1, SVG Export Plug-In . SVG Version: 6.00 Build 0)  -->
<svg version="1.1" id="Layer_1" xmlns="http://www.w3.org/2000/svg" xmlns:xlink="http://www.w3.org/1999/xlink" x="0px" y="0px"
	 viewBox="0 0 810 162" style="enable-background:new 0 0 810 162;" xml:space="preserve">
<style type="text/css">
	.st0{fill:url(#SVGID_1_);}
	.st1{opacity:0.5;fill:url(#SVGID_2_);enable-background:new    ;}
	.st2{fill:url(#SVGID_3_);}
	.st3{fill:#D633BB;}
	.st4{clip-path:url(#SVGID_5_);}
	.st5{fill:#F74989;}
	.st6{fill:url(#SVGID_6_);}
	.st7{clip-path:url(#SVGID_8_);}
	.st8{fill:url(#SVGID_9_);}
</style>
<g>
	<g>
		
			<linearGradient id="SVGID_1_" gradientUnits="userSpaceOnUse" x1="275" y1="-3026.96" x2="534.9294" y2="-3026.96" gradientTransform="matrix(1 0 0 -1 0 -2946.0598)">
			<stop  offset="0" style="stop-color:#801C7D"/>
			<stop  offset="1" style="stop-color:#481368"/>
		</linearGradient>
		<path class="st0" d="M534.9,79.6c0-3.7-1.9-7.1-5-9L412.2,2.8c-4.7-2.7-10.6-2.7-15.3,0L280,70.6c-3.1,1.8-5.1,5.2-5,8.8V84
			c0,3.6,1.9,7,5.1,8.8l112.6,64.9c7.9,4.6,17.6,4.5,25.4-0.1l111.7-64.8c3.1-1.8,5.1-5.2,5-8.8V79.6z"/>
		
			<linearGradient id="SVGID_2_" gradientUnits="userSpaceOnUse" x1="275" y1="-3026.96" x2="534.9294" y2="-3026.96" gradientTransform="matrix(1 0 0 -1 0 -2946.0598)">
			<stop  offset="0" style="stop-color:#D633BB"/>
			<stop  offset="0.41" style="stop-color:#E140AE"/>
			<stop  offset="1" style="stop-color:#F75A94"/>
		</linearGradient>
		<path class="st1" d="M534.9,79.6c0-3.7-1.9-7.1-5-9L412.2,2.8c-4.7-2.7-10.6-2.7-15.3,0L280,70.6c-3.1,1.8-5.1,5.2-5,8.8V84
			c0,3.6,1.9,7,5.1,8.8l112.6,64.9c7.9,4.6,17.6,4.5,25.4-0.1l111.7-64.8c3.1-1.8,5.1-5.2,5-8.8V79.6z"/>
		
			<linearGradient id="SVGID_3_" gradientUnits="userSpaceOnUse" x1="275.0295" y1="1337.12" x2="535" y2="1337.12" gradientTransform="matrix(1 0 0 1 0 -1258.52)">
			<stop  offset="0" style="stop-color:#D633BB"/>
			<stop  offset="0.41" style="stop-color:#E140AE"/>
			<stop  offset="1" style="stop-color:#F75A94"/>
		</linearGradient>
		<path class="st2" d="M397,2.8L280.1,70.6c-4.9,2.8-6.5,9.1-3.7,13.9c0.9,1.5,2.2,2.8,3.7,3.7l112.6,64.9
			c7.9,4.6,17.6,4.5,25.4-0.1l111.7-64.8c4.9-2.8,6.5-9.1,3.7-13.9c-0.9-1.5-2.2-2.8-3.7-3.7L412.3,2.8C407.6,0.1,401.7,0.1,397,2.8
			z"/>
	</g>
	<g id="line">
		<g>
			<path class="st3" d="M128.7,80.8c0,1.5,1.2,2.7,2.7,2.7l0,0h145.4v-5.4H131.5C130,78.1,128.7,79.3,128.7,80.8z"/>
			<path class="st3" d="M126.3,80.8c0,2.8,2.3,5.1,5.1,5.1c2.8,0,5.1-2.3,5.1-5.1c0-2.8-2.3-5.1-5.1-5.1l0,0
				C128.5,75.7,126.3,78,126.3,80.8z"/>
		</g>
	</g>
</g>
<g id="logo">
	<g>
		<g>
			<defs>
				<path id="SVGID_4_" d="M68,77.6C59.2,63,50.7,48.8,49.7,47.5c-0.5-0.8-1.3-1.4-2.2-1.6h-0.7c-0.9,0.2-1.7,0.8-2.2,1.6
					c-1,1.3-9.5,15.4-18.3,30.1C16.2,94.4,5.2,111.9,5.2,111.9h11L43.6,67c0,0,1.9-3.2,3.6-3.1l0,0c1.7,0,3.6,3.1,3.6,3.1l27.4,44.9
					h11C89.1,111.9,78.2,94.4,68,77.6z"/>
			</defs>
			<clipPath id="SVGID_5_">
				<use xlink:href="#SVGID_4_"  style="overflow:visible;"/>
			</clipPath>
			<g class="st4">
				<g>
					<polygon class="st5" points="5.1,45.9 5.1,111.9 89.1,111.9 89.1,45.9 					"/>
					
						<linearGradient id="SVGID_6_" gradientUnits="userSpaceOnUse" x1="2659.6162" y1="-1521.604" x2="2660.6162" y2="-1521.604" gradientTransform="matrix(83.18 -9.19 -11.69 -65.36 -239008.7031 -74926.7422)">
						<stop  offset="0" style="stop-color:#DD49F8"/>
						<stop  offset="0.4" style="stop-color:#F74989;stop-opacity:0"/>
						<stop  offset="0.4" style="stop-color:#000000;stop-opacity:0"/>
						<stop  offset="1" style="stop-color:#000000;stop-opacity:0"/>
					</linearGradient>
					<polygon class="st6" points="5.1,45.9 5.1,111.9 89.1,111.9 89.1,45.9 					"/>
				</g>
			</g>
		</g>
	</g>
	<g>
		<g>
			<defs>
				<path id="SVGID_7_" d="M51.1,75.9h-8c-1.7,0-3,1.3-3,3s1.3,3,3,3h8c1.7,0,3-1.3,3-3S52.8,75.9,51.1,75.9z"/>
			</defs>
			<clipPath id="SVGID_8_">
				<use xlink:href="#SVGID_7_"  style="overflow:visible;"/>
			</clipPath>
			<g class="st7">
				<g>
					<polygon class="st5" points="5.1,45.9 5.1,111.9 89.1,111.9 89.1,45.9 					"/>
					
						<linearGradient id="SVGID_9_" gradientUnits="userSpaceOnUse" x1="2659.6162" y1="-1521.604" x2="2660.6162" y2="-1521.604" gradientTransform="matrix(83.18 -9.19 -11.69 -65.36 -239008.7031 -74926.7422)">
						<stop  offset="0" style="stop-color:#DD49F8"/>
						<stop  offset="0.4" style="stop-color:#F74989;stop-opacity:0"/>
						<stop  offset="0.4" style="stop-color:#000000;stop-opacity:0"/>
						<stop  offset="1" style="stop-color:#000000;stop-opacity:0"/>
					</linearGradient>
					<polygon class="st8" points="5.1,45.9 5.1,111.9 89.1,111.9 89.1,45.9 					"/>
				</g>
			</g>
		</g>
	</g>
</g>
</svg>
